<svg width="217" height="344" viewBox="0 0 217 344" fill="none" xmlns="http://www.w3.org/2000/svg">
<path d="M15.5605 6.848L12.3285 18H10.6965L8.1045 9.024L5.4165 18L3.8005 18.016L0.6805 6.848H2.2325L4.6645 16.304L7.3525 6.848H8.9845L11.5445 16.272L13.9925 6.848H15.5605ZM20.9779 18.144C20.1565 18.144 19.4099 17.9573 18.7379 17.584C18.0765 17.2107 17.5539 16.6827 17.1699 16C16.7965 15.3067 16.6099 14.5067 16.6099 13.6C16.6099 12.704 16.8019 11.9147 17.1859 11.232C17.5805 10.5387 18.1139 10.0107 18.7859 9.648C19.4579 9.27467 20.2099 9.088 21.0419 9.088C21.8739 9.088 22.6259 9.27467 23.2979 9.648C23.9699 10.0107 24.4979 10.5333 24.8819 11.216C25.2765 11.8987 25.4739 12.6933 25.4739 13.6C25.4739 14.5067 25.2712 15.3067 24.8659 16C24.4712 16.6827 23.9325 17.2107 23.2499 17.584C22.5672 17.9573 21.8099 18.144 20.9779 18.144ZM20.9779 16.864C21.5005 16.864 21.9912 16.7413 22.4499 16.496C22.9085 16.2507 23.2765 15.8827 23.5539 15.392C23.8419 14.9013 23.9859 14.304 23.9859 13.6C23.9859 12.896 23.8472 12.2987 23.5699 11.808C23.2925 11.3173 22.9299 10.9547 22.4819 10.72C22.0339 10.4747 21.5485 10.352 21.0259 10.352C20.4925 10.352 20.0019 10.4747 19.5539 10.72C19.1165 10.9547 18.7645 11.3173 18.4979 11.808C18.2312 12.2987 18.0979 12.896 18.0979 13.6C18.0979 14.3147 18.2259 14.9173 18.4819 15.408C18.7485 15.8987 19.1005 16.2667 19.5379 16.512C19.9752 16.7467 20.4552 16.864 20.9779 16.864ZM37.9323 9.072C38.6149 9.072 39.2229 9.216 39.7563 9.504C40.2896 9.78133 40.7109 10.2027 41.0203 10.768C41.3296 11.3333 41.4843 12.0213 41.4843 12.832V18H40.0443V13.04C40.0443 12.1653 39.8256 11.4987 39.3883 11.04C38.9616 10.5707 38.3803 10.336 37.6443 10.336C36.8869 10.336 36.2843 10.5813 35.8363 11.072C35.3883 11.552 35.1643 12.2507 35.1643 13.168V18H33.7243V13.04C33.7243 12.1653 33.5056 11.4987 33.0683 11.04C32.6416 10.5707 32.0603 10.336 31.3243 10.336C30.5669 10.336 29.9643 10.5813 29.5163 11.072C29.0683 11.552 28.8443 12.2507 28.8443 13.168V18H27.3883V9.232H28.8443V10.496C29.1323 10.0373 29.5163 9.68533 29.9963 9.44C30.4869 9.19467 31.0256 9.072 31.6123 9.072C32.3483 9.072 32.9989 9.23733 33.5643 9.568C34.1296 9.89867 34.5509 10.384 34.8283 11.024C35.0736 10.4053 35.4789 9.92533 36.0443 9.584C36.6096 9.24267 37.2389 9.072 37.9323 9.072ZM43.3286 13.584C43.3286 12.688 43.51 11.904 43.8726 11.232C44.2353 10.5493 44.7313 10.0213 45.3606 9.648C46.0006 9.27467 46.71 9.088 47.4886 9.088C48.2566 9.088 48.9233 9.25333 49.4886 9.584C50.054 9.91467 50.4753 10.3307 50.7526 10.832V9.232H52.2246V18H50.7526V16.368C50.4646 16.88 50.0326 17.3067 49.4566 17.648C48.8913 17.9787 48.23 18.144 47.4726 18.144C46.694 18.144 45.99 17.952 45.3606 17.568C44.7313 17.184 44.2353 16.6453 43.8726 15.952C43.51 15.2587 43.3286 14.4693 43.3286 13.584ZM50.7526 13.6C50.7526 12.9387 50.6193 12.3627 50.3526 11.872C50.086 11.3813 49.7233 11.008 49.2646 10.752C48.8166 10.4853 48.3206 10.352 47.7766 10.352C47.2326 10.352 46.7366 10.48 46.2886 10.736C45.8406 10.992 45.4833 11.3653 45.2166 11.856C44.95 12.3467 44.8166 12.9227 44.8166 13.584C44.8166 14.256 44.95 14.8427 45.2166 15.344C45.4833 15.8347 45.8406 16.2133 46.2886 16.48C46.7366 16.736 47.2326 16.864 47.7766 16.864C48.3206 16.864 48.8166 16.736 49.2646 16.48C49.7233 16.2133 50.086 15.8347 50.3526 15.344C50.6193 14.8427 50.7526 14.2613 50.7526 13.6ZM58.9571 9.072C60.0238 9.072 60.8878 9.39733 61.5491 10.048C62.2105 10.688 62.5411 11.616 62.5411 12.832V18H61.1011V13.04C61.1011 12.1653 60.8825 11.4987 60.4451 11.04C60.0078 10.5707 59.4105 10.336 58.6531 10.336C57.8851 10.336 57.2718 10.576 56.8131 11.056C56.3651 11.536 56.1411 12.2347 56.1411 13.152V18H54.6851V9.232H56.1411V10.48C56.4291 10.032 56.8185 9.68533 57.3091 9.44C57.8105 9.19467 58.3598 9.072 58.9571 9.072ZM65.1435 6.848H66.7595L65.2235 10.48H64.1995L65.1435 6.848ZM71.5235 18.144C70.8515 18.144 70.2488 18.032 69.7155 17.808C69.1822 17.5733 68.7608 17.2533 68.4515 16.848C68.1422 16.432 67.9715 15.9573 67.9395 15.424H69.4435C69.4862 15.8613 69.6888 16.2187 70.0515 16.496C70.4248 16.7733 70.9102 16.912 71.5075 16.912C72.0622 16.912 72.4995 16.7893 72.8195 16.544C73.1395 16.2987 73.2995 15.9893 73.2995 15.616C73.2995 15.232 73.1288 14.9493 72.7875 14.768C72.4462 14.576 71.9182 14.3893 71.2035 14.208C70.5528 14.0373 70.0195 13.8667 69.6035 13.696C69.1982 13.5147 68.8462 13.2533 68.5475 12.912C68.2595 12.56 68.1155 12.1013 68.1155 11.536C68.1155 11.088 68.2488 10.6773 68.5155 10.304C68.7822 9.93067 69.1608 9.63733 69.6515 9.424C70.1422 9.2 70.7022 9.088 71.3315 9.088C72.3022 9.088 73.0862 9.33333 73.6835 9.824C74.2808 10.3147 74.6008 10.9867 74.6435 11.84H73.1875C73.1555 11.3813 72.9688 11.0133 72.6275 10.736C72.2968 10.4587 71.8488 10.32 71.2835 10.32C70.7608 10.32 70.3448 10.432 70.0355 10.656C69.7262 10.88 69.5715 11.1733 69.5715 11.536C69.5715 11.824 69.6622 12.064 69.8435 12.256C70.0355 12.4373 70.2702 12.5867 70.5475 12.704C70.8355 12.8107 71.2302 12.9333 71.7315 13.072C72.3608 13.2427 72.8728 13.4133 73.2675 13.584C73.6622 13.744 73.9982 13.9893 74.2755 14.32C74.5635 14.6507 74.7128 15.0827 74.7235 15.616C74.7235 16.096 74.5902 16.528 74.3235 16.912C74.0568 17.296 73.6782 17.6 73.1875 17.824C72.7075 18.0373 72.1528 18.144 71.5235 18.144ZM87.3485 6.848V8.032H82.5005V11.792H86.4365V12.976H82.5005V18H81.0445V6.848H87.3485ZM88.563 13.584C88.563 12.688 88.7443 11.904 89.107 11.232C89.4697 10.5493 89.9657 10.0213 90.595 9.648C91.235 9.27467 91.9443 9.088 92.723 9.088C93.491 9.088 94.1577 9.25333 94.723 9.584C95.2883 9.91467 95.7097 10.3307 95.987 10.832V9.232H97.459V18H95.987V16.368C95.699 16.88 95.267 17.3067 94.691 17.648C94.1257 17.9787 93.4643 18.144 92.707 18.144C91.9283 18.144 91.2243 17.952 90.595 17.568C89.9657 17.184 89.4697 16.6453 89.107 15.952C88.7443 15.2587 88.563 14.4693 88.563 13.584ZM95.987 13.6C95.987 12.9387 95.8537 12.3627 95.587 11.872C95.3203 11.3813 94.9577 11.008 94.499 10.752C94.051 10.4853 93.555 10.352 93.011 10.352C92.467 10.352 91.971 10.48 91.523 10.736C91.075 10.992 90.7177 11.3653 90.451 11.856C90.1843 12.3467 90.051 12.9227 90.051 13.584C90.051 14.256 90.1843 14.8427 90.451 15.344C90.7177 15.8347 91.075 16.2133 91.523 16.48C91.971 16.736 92.467 16.864 93.011 16.864C93.555 16.864 94.051 16.736 94.499 16.48C94.9577 16.2133 95.3203 15.8347 95.587 15.344C95.8537 14.8427 95.987 14.2613 95.987 13.6ZM103.024 18.144C102.352 18.144 101.749 18.032 101.216 17.808C100.682 17.5733 100.261 17.2533 99.9515 16.848C99.6422 16.432 99.4715 15.9573 99.4395 15.424H100.944C100.986 15.8613 101.189 16.2187 101.552 16.496C101.925 16.7733 102.41 16.912 103.008 16.912C103.562 16.912 104 16.7893 104.32 16.544C104.64 16.2987 104.8 15.9893 104.8 15.616C104.8 15.232 104.629 14.9493 104.288 14.768C103.946 14.576 103.418 14.3893 102.704 14.208C102.053 14.0373 101.52 13.8667 101.104 13.696C100.698 13.5147 100.346 13.2533 100.048 12.912C99.7595 12.56 99.6155 12.1013 99.6155 11.536C99.6155 11.088 99.7488 10.6773 100.016 10.304C100.282 9.93067 100.661 9.63733 101.152 9.424C101.642 9.2 102.202 9.088 102.832 9.088C103.802 9.088 104.586 9.33333 105.184 9.824C105.781 10.3147 106.101 10.9867 106.144 11.84H104.688C104.656 11.3813 104.469 11.0133 104.128 10.736C103.797 10.4587 103.349 10.32 102.784 10.32C102.261 10.32 101.845 10.432 101.536 10.656C101.226 10.88 101.072 11.1733 101.072 11.536C101.072 11.824 101.162 12.064 101.344 12.256C101.536 12.4373 101.77 12.5867 102.048 12.704C102.336 12.8107 102.73 12.9333 103.232 13.072C103.861 13.2427 104.373 13.4133 104.768 13.584C105.162 13.744 105.498 13.9893 105.776 14.32C106.064 14.6507 106.213 15.0827 106.224 15.616C106.224 16.096 106.09 16.528 105.824 16.912C105.557 17.296 105.178 17.6 104.688 17.824C104.208 18.0373 103.653 18.144 103.024 18.144ZM112.631 9.072C113.292 9.072 113.89 9.216 114.423 9.504C114.956 9.78133 115.372 10.2027 115.671 10.768C115.98 11.3333 116.135 12.0213 116.135 12.832V18H114.695V13.04C114.695 12.1653 114.476 11.4987 114.039 11.04C113.602 10.5707 113.004 10.336 112.247 10.336C111.479 10.336 110.866 10.576 110.407 11.056C109.959 11.536 109.735 12.2347 109.735 13.152V18H108.279V6.16H109.735V10.48C110.023 10.032 110.418 9.68533 110.919 9.44C111.431 9.19467 112.002 9.072 112.631 9.072ZM119.265 7.808C118.988 7.808 118.753 7.712 118.561 7.52C118.369 7.328 118.273 7.09333 118.273 6.816C118.273 6.53867 118.369 6.304 118.561 6.112C118.753 5.92 118.988 5.824 119.265 5.824C119.532 5.824 119.756 5.92 119.937 6.112C120.129 6.304 120.225 6.53867 120.225 6.816C120.225 7.09333 120.129 7.328 119.937 7.52C119.756 7.712 119.532 7.808 119.265 7.808ZM119.969 9.232V18H118.513V9.232H119.969ZM126.275 18.144C125.453 18.144 124.707 17.9573 124.035 17.584C123.373 17.2107 122.851 16.6827 122.467 16C122.093 15.3067 121.907 14.5067 121.907 13.6C121.907 12.704 122.099 11.9147 122.483 11.232C122.877 10.5387 123.411 10.0107 124.083 9.648C124.755 9.27467 125.507 9.088 126.339 9.088C127.171 9.088 127.923 9.27467 128.595 9.648C129.267 10.0107 129.795 10.5333 130.179 11.216C130.573 11.8987 130.771 12.6933 130.771 13.6C130.771 14.5067 130.568 15.3067 130.163 16C129.768 16.6827 129.229 17.2107 128.547 17.584C127.864 17.9573 127.107 18.144 126.275 18.144ZM126.275 16.864C126.797 16.864 127.288 16.7413 127.747 16.496C128.205 16.2507 128.573 15.8827 128.851 15.392C129.139 14.9013 129.283 14.304 129.283 13.6C129.283 12.896 129.144 12.2987 128.867 11.808C128.589 11.3173 128.227 10.9547 127.779 10.72C127.331 10.4747 126.845 10.352 126.323 10.352C125.789 10.352 125.299 10.4747 124.851 10.72C124.413 10.9547 124.061 11.3173 123.795 11.808C123.528 12.2987 123.395 12.896 123.395 13.6C123.395 14.3147 123.523 14.9173 123.779 15.408C124.045 15.8987 124.397 16.2667 124.835 16.512C125.272 16.7467 125.752 16.864 126.275 16.864ZM136.957 9.072C138.024 9.072 138.888 9.39733 139.549 10.048C140.21 10.688 140.541 11.616 140.541 12.832V18H139.101V13.04C139.101 12.1653 138.882 11.4987 138.445 11.04C138.008 10.5707 137.41 10.336 136.653 10.336C135.885 10.336 135.272 10.576 134.813 11.056C134.365 11.536 134.141 12.2347 134.141 13.152V18H132.685V9.232H134.141V10.48C134.429 10.032 134.818 9.68533 135.309 9.44C135.81 9.19467 136.36 9.072 136.957 9.072Z" fill="black"/>
<path d="M205.95 11.636L201 6.68597L202.414 5.27197L208.778 11.636L202.414 18L201 16.586L205.95 11.636Z" fill="black"/>
<path d="M12.5753 46.928V58H11.1193V49.744L7.43925 58H6.41525L2.71925 49.728V58H1.26325V46.928H2.83125L6.92725 56.08L11.0233 46.928H12.5753ZM23.0445 53.28C23.0445 53.5573 23.0285 53.8507 22.9965 54.16H15.9885C16.0418 55.024 16.3352 55.7013 16.8685 56.192C17.4125 56.672 18.0685 56.912 18.8365 56.912C19.4658 56.912 19.9885 56.768 20.4045 56.48C20.8312 56.1813 21.1298 55.7867 21.3005 55.296H22.8685C22.6338 56.1387 22.1645 56.8267 21.4605 57.36C20.7565 57.8827 19.8818 58.144 18.8365 58.144C18.0045 58.144 17.2578 57.9573 16.5965 57.584C15.9458 57.2107 15.4338 56.6827 15.0605 56C14.6872 55.3067 14.5005 54.5067 14.5005 53.6C14.5005 52.6933 14.6818 51.8987 15.0445 51.216C15.4072 50.5333 15.9138 50.0107 16.5645 49.648C17.2258 49.2747 17.9832 49.088 18.8365 49.088C19.6685 49.088 20.4045 49.2693 21.0445 49.632C21.6845 49.9947 22.1752 50.496 22.5165 51.136C22.8685 51.7653 23.0445 52.48 23.0445 53.28ZM21.5405 52.976C21.5405 52.4213 21.4178 51.9467 21.1725 51.552C20.9272 51.1467 20.5912 50.8427 20.1645 50.64C19.7485 50.4267 19.2845 50.32 18.7725 50.32C18.0365 50.32 17.4072 50.5547 16.8845 51.024C16.3725 51.4933 16.0792 52.144 16.0045 52.976H21.5405ZM29.2384 49.072C30.305 49.072 31.169 49.3973 31.8304 50.048C32.4917 50.688 32.8224 51.616 32.8224 52.832V58H31.3824V53.04C31.3824 52.1653 31.1637 51.4987 30.7264 51.04C30.289 50.5707 29.6917 50.336 28.9344 50.336C28.1664 50.336 27.553 50.576 27.0944 51.056C26.6464 51.536 26.4224 52.2347 26.4224 53.152V58H24.9664V49.232H26.4224V50.48C26.7104 50.032 27.0997 49.6853 27.5904 49.44C28.0917 49.1947 28.641 49.072 29.2384 49.072ZM35.4248 46.848H37.0408L35.5048 50.48H34.4808L35.4248 46.848ZM41.8048 58.144C41.1328 58.144 40.5301 58.032 39.9968 57.808C39.4634 57.5733 39.0421 57.2533 38.7328 56.848C38.4234 56.432 38.2528 55.9573 38.2208 55.424H39.7248C39.7674 55.8613 39.9701 56.2187 40.3328 56.496C40.7061 56.7733 41.1914 56.912 41.7888 56.912C42.3434 56.912 42.7808 56.7893 43.1008 56.544C43.4208 56.2987 43.5808 55.9893 43.5808 55.616C43.5808 55.232 43.4101 54.9493 43.0688 54.768C42.7274 54.576 42.1994 54.3893 41.4848 54.208C40.8341 54.0373 40.3008 53.8667 39.8848 53.696C39.4794 53.5147 39.1274 53.2533 38.8288 52.912C38.5408 52.56 38.3968 52.1013 38.3968 51.536C38.3968 51.088 38.5301 50.6773 38.7968 50.304C39.0634 49.9307 39.4421 49.6373 39.9328 49.424C40.4234 49.2 40.9834 49.088 41.6128 49.088C42.5834 49.088 43.3674 49.3333 43.9648 49.824C44.5621 50.3147 44.8821 50.9867 44.9248 51.84H43.4688C43.4368 51.3813 43.2501 51.0133 42.9088 50.736C42.5781 50.4587 42.1301 50.32 41.5648 50.32C41.0421 50.32 40.6261 50.432 40.3168 50.656C40.0074 50.88 39.8528 51.1733 39.8528 51.536C39.8528 51.824 39.9434 52.064 40.1248 52.256C40.3168 52.4373 40.5514 52.5867 40.8288 52.704C41.1168 52.8107 41.5114 52.9333 42.0128 53.072C42.6421 53.2427 43.1541 53.4133 43.5488 53.584C43.9434 53.744 44.2794 53.9893 44.5568 54.32C44.8448 54.6507 44.9941 55.0827 45.0048 55.616C45.0048 56.096 44.8714 56.528 44.6048 56.912C44.3381 57.296 43.9594 57.6 43.4688 57.824C42.9888 58.0373 42.4341 58.144 41.8048 58.144ZM57.6298 46.848V48.032H52.7818V51.792H56.7178V52.976H52.7818V58H51.3258V46.848H57.6298ZM58.8443 53.584C58.8443 52.688 59.0256 51.904 59.3883 51.232C59.7509 50.5493 60.2469 50.0213 60.8763 49.648C61.5163 49.2747 62.2256 49.088 63.0043 49.088C63.7723 49.088 64.4389 49.2533 65.0043 49.584C65.5696 49.9147 65.9909 50.3307 66.2683 50.832V49.232H67.7403V58H66.2683V56.368C65.9803 56.88 65.5483 57.3067 64.9723 57.648C64.4069 57.9787 63.7456 58.144 62.9883 58.144C62.2096 58.144 61.5056 57.952 60.8763 57.568C60.2469 57.184 59.7509 56.6453 59.3883 55.952C59.0256 55.2587 58.8443 54.4693 58.8443 53.584ZM66.2683 53.6C66.2683 52.9387 66.1349 52.3627 65.8683 51.872C65.6016 51.3813 65.2389 51.008 64.7803 50.752C64.3323 50.4853 63.8363 50.352 63.2923 50.352C62.7483 50.352 62.2523 50.48 61.8043 50.736C61.3563 50.992 60.9989 51.3653 60.7323 51.856C60.4656 52.3467 60.3323 52.9227 60.3323 53.584C60.3323 54.256 60.4656 54.8427 60.7323 55.344C60.9989 55.8347 61.3563 56.2133 61.8043 56.48C62.2523 56.736 62.7483 56.864 63.2923 56.864C63.8363 56.864 64.3323 56.736 64.7803 56.48C65.2389 56.2133 65.6016 55.8347 65.8683 55.344C66.1349 54.8427 66.2683 54.2613 66.2683 53.6ZM73.3048 58.144C72.6328 58.144 72.0301 58.032 71.4968 57.808C70.9634 57.5733 70.5421 57.2533 70.2328 56.848C69.9234 56.432 69.7528 55.9573 69.7208 55.424H71.2248C71.2674 55.8613 71.4701 56.2187 71.8328 56.496C72.2061 56.7733 72.6914 56.912 73.2888 56.912C73.8434 56.912 74.2808 56.7893 74.6008 56.544C74.9208 56.2987 75.0808 55.9893 75.0808 55.616C75.0808 55.232 74.9101 54.9493 74.5688 54.768C74.2274 54.576 73.6994 54.3893 72.9848 54.208C72.3341 54.0373 71.8008 53.8667 71.3848 53.696C70.9794 53.5147 70.6274 53.2533 70.3288 52.912C70.0408 52.56 69.8968 52.1013 69.8968 51.536C69.8968 51.088 70.0301 50.6773 70.2968 50.304C70.5634 49.9307 70.9421 49.6373 71.4328 49.424C71.9234 49.2 72.4834 49.088 73.1128 49.088C74.0834 49.088 74.8674 49.3333 75.4648 49.824C76.0621 50.3147 76.3821 50.9867 76.4248 51.84H74.9688C74.9368 51.3813 74.7501 51.0133 74.4088 50.736C74.0781 50.4587 73.6301 50.32 73.0648 50.32C72.5421 50.32 72.1261 50.432 71.8168 50.656C71.5074 50.88 71.3528 51.1733 71.3528 51.536C71.3528 51.824 71.4434 52.064 71.6248 52.256C71.8168 52.4373 72.0514 52.5867 72.3288 52.704C72.6168 52.8107 73.0114 52.9333 73.5128 53.072C74.1421 53.2427 74.6541 53.4133 75.0488 53.584C75.4434 53.744 75.7794 53.9893 76.0568 54.32C76.3448 54.6507 76.4941 55.0827 76.5048 55.616C76.5048 56.096 76.3714 56.528 76.1048 56.912C75.8381 57.296 75.4594 57.6 74.9688 57.824C74.4888 58.0373 73.9341 58.144 73.3048 58.144ZM82.9121 49.072C83.5735 49.072 84.1708 49.216 84.7041 49.504C85.2375 49.7813 85.6535 50.2027 85.9521 50.768C86.2615 51.3333 86.4161 52.0213 86.4161 52.832V58H84.9761V53.04C84.9761 52.1653 84.7575 51.4987 84.3201 51.04C83.8828 50.5707 83.2855 50.336 82.5281 50.336C81.7601 50.336 81.1468 50.576 80.6881 51.056C80.2401 51.536 80.0161 52.2347 80.0161 53.152V58H78.5601V46.16H80.0161V50.48C80.3041 50.032 80.6988 49.6853 81.2001 49.44C81.7121 49.1947 82.2828 49.072 82.9121 49.072ZM89.5465 47.808C89.2692 47.808 89.0345 47.712 88.8425 47.52C88.6505 47.328 88.5545 47.0933 88.5545 46.816C88.5545 46.5387 88.6505 46.304 88.8425 46.112C89.0345 45.92 89.2692 45.824 89.5465 45.824C89.8132 45.824 90.0372 45.92 90.2185 46.112C90.4105 46.304 90.5065 46.5387 90.5065 46.816C90.5065 47.0933 90.4105 47.328 90.2185 47.52C90.0372 47.712 89.8132 47.808 89.5465 47.808ZM90.2505 49.232V58H88.7945V49.232H90.2505ZM96.556 58.144C95.7347 58.144 94.988 57.9573 94.316 57.584C93.6547 57.2107 93.132 56.6827 92.748 56C92.3747 55.3067 92.188 54.5067 92.188 53.6C92.188 52.704 92.38 51.9147 92.764 51.232C93.1587 50.5387 93.692 50.0107 94.364 49.648C95.036 49.2747 95.788 49.088 96.62 49.088C97.452 49.088 98.204 49.2747 98.876 49.648C99.548 50.0107 100.076 50.5333 100.46 51.216C100.855 51.8987 101.052 52.6933 101.052 53.6C101.052 54.5067 100.849 55.3067 100.444 56C100.049 56.6827 99.5107 57.2107 98.828 57.584C98.1453 57.9573 97.388 58.144 96.556 58.144ZM96.556 56.864C97.0787 56.864 97.5693 56.7413 98.028 56.496C98.4867 56.2507 98.8547 55.8827 99.132 55.392C99.42 54.9013 99.564 54.304 99.564 53.6C99.564 52.896 99.4253 52.2987 99.148 51.808C98.8707 51.3173 98.508 50.9547 98.06 50.72C97.612 50.4747 97.1267 50.352 96.604 50.352C96.0707 50.352 95.58 50.4747 95.132 50.72C94.6947 50.9547 94.3427 51.3173 94.076 51.808C93.8093 52.2987 93.676 52.896 93.676 53.6C93.676 54.3147 93.804 54.9173 94.06 55.408C94.3267 55.8987 94.6787 56.2667 95.116 56.512C95.5533 56.7467 96.0333 56.864 96.556 56.864ZM107.238 49.072C108.305 49.072 109.169 49.3973 109.83 50.048C110.492 50.688 110.822 51.616 110.822 52.832V58H109.382V53.04C109.382 52.1653 109.164 51.4987 108.726 51.04C108.289 50.5707 107.692 50.336 106.934 50.336C106.166 50.336 105.553 50.576 105.094 51.056C104.646 51.536 104.422 52.2347 104.422 53.152V58H102.966V49.232H104.422V50.48C104.71 50.032 105.1 49.6853 105.59 49.44C106.092 49.1947 106.641 49.072 107.238 49.072Z" fill="black"/>
<path d="M205.95 51.636L201 46.686L202.414 45.272L208.778 51.636L202.414 58L201 56.586L205.95 51.636Z" fill="black"/>
<path d="M3.15675 88.032V91.76H7.22075V92.96H3.15675V96.8H7.70075V98H1.70075V86.832H7.70075V88.032H3.15675ZM11.3599 86.16V98H9.90388V86.16H11.3599ZM21.8414 93.28C21.8414 93.5573 21.8254 93.8507 21.7934 94.16H14.7854C14.8387 95.024 15.132 95.7013 15.6654 96.192C16.2094 96.672 16.8654 96.912 17.6334 96.912C18.2627 96.912 18.7854 96.768 19.2014 96.48C19.628 96.1813 19.9267 95.7867 20.0974 95.296H21.6654C21.4307 96.1387 20.9614 96.8267 20.2574 97.36C19.5534 97.8827 18.6787 98.144 17.6334 98.144C16.8014 98.144 16.0547 97.9573 15.3934 97.584C14.7427 97.2107 14.2307 96.6827 13.8574 96C13.484 95.3067 13.2974 94.5067 13.2974 93.6C13.2974 92.6933 13.4787 91.8987 13.8414 91.216C14.204 90.5333 14.7107 90.0107 15.3614 89.648C16.0227 89.2747 16.78 89.088 17.6334 89.088C18.4654 89.088 19.2014 89.2693 19.8414 89.632C20.4814 89.9947 20.972 90.496 21.3134 91.136C21.6654 91.7653 21.8414 92.48 21.8414 93.28ZM20.3374 92.976C20.3374 92.4213 20.2147 91.9467 19.9694 91.552C19.724 91.1467 19.388 90.8427 18.9614 90.64C18.5454 90.4267 18.0814 90.32 17.5694 90.32C16.8334 90.32 16.204 90.5547 15.6814 91.024C15.1694 91.4933 14.876 92.144 14.8014 92.976H20.3374ZM23.2193 93.6C23.2193 92.6933 23.4006 91.904 23.7633 91.232C24.1259 90.5493 24.6273 90.0213 25.2673 89.648C25.9179 89.2747 26.6593 89.088 27.4913 89.088C28.5686 89.088 29.4539 89.3493 30.1473 89.872C30.8513 90.3947 31.3153 91.12 31.5393 92.048H29.9713C29.8219 91.5147 29.5286 91.0933 29.0913 90.784C28.6646 90.4747 28.1313 90.32 27.4913 90.32C26.6593 90.32 25.9873 90.608 25.4753 91.184C24.9633 91.7493 24.7073 92.5547 24.7073 93.6C24.7073 94.656 24.9633 95.472 25.4753 96.048C25.9873 96.624 26.6593 96.912 27.4913 96.912C28.1313 96.912 28.6646 96.7627 29.0913 96.464C29.5179 96.1653 29.8113 95.7387 29.9713 95.184H31.5393C31.3046 96.08 30.8353 96.8 30.1313 97.344C29.4273 97.8773 28.5473 98.144 27.4913 98.144C26.6593 98.144 25.9179 97.9573 25.2673 97.584C24.6273 97.2107 24.1259 96.6827 23.7633 96C23.4006 95.3173 23.2193 94.5173 23.2193 93.6ZM35.258 90.432V95.6C35.258 96.0267 35.3487 96.3307 35.53 96.512C35.7113 96.6827 36.026 96.768 36.474 96.768H37.546V98H36.234C35.4233 98 34.8153 97.8133 34.41 97.44C34.0047 97.0667 33.802 96.4533 33.802 95.6V90.432H32.666V89.232H33.802V87.024H35.258V89.232H37.546V90.432H35.258ZM40.7661 90.656C41.0221 90.1547 41.3848 89.7653 41.8541 89.488C42.3341 89.2107 42.9155 89.072 43.5981 89.072V90.576H43.2141C41.5821 90.576 40.7661 91.4613 40.7661 93.232V98H39.3101V89.232H40.7661V90.656ZM49.1029 98.144C48.2815 98.144 47.5349 97.9573 46.8629 97.584C46.2015 97.2107 45.6789 96.6827 45.2949 96C44.9215 95.3067 44.7349 94.5067 44.7349 93.6C44.7349 92.704 44.9269 91.9147 45.3109 91.232C45.7055 90.5387 46.2389 90.0107 46.9109 89.648C47.5829 89.2747 48.3349 89.088 49.1669 89.088C49.9989 89.088 50.7509 89.2747 51.4229 89.648C52.0949 90.0107 52.6229 90.5333 53.0069 91.216C53.4015 91.8987 53.5989 92.6933 53.5989 93.6C53.5989 94.5067 53.3962 95.3067 52.9909 96C52.5962 96.6827 52.0575 97.2107 51.3749 97.584C50.6922 97.9573 49.9349 98.144 49.1029 98.144ZM49.1029 96.864C49.6255 96.864 50.1162 96.7413 50.5749 96.496C51.0335 96.2507 51.4015 95.8827 51.6789 95.392C51.9669 94.9013 52.1109 94.304 52.1109 93.6C52.1109 92.896 51.9722 92.2987 51.6949 91.808C51.4175 91.3173 51.0549 90.9547 50.6069 90.72C50.1589 90.4747 49.6735 90.352 49.1509 90.352C48.6175 90.352 48.1269 90.4747 47.6789 90.72C47.2415 90.9547 46.8895 91.3173 46.6229 91.808C46.3562 92.2987 46.2229 92.896 46.2229 93.6C46.2229 94.3147 46.3509 94.9173 46.6069 95.408C46.8735 95.8987 47.2255 96.2667 47.6629 96.512C48.1002 96.7467 48.5802 96.864 49.1029 96.864ZM59.7853 89.072C60.8519 89.072 61.7159 89.3973 62.3773 90.048C63.0386 90.688 63.3693 91.616 63.3693 92.832V98H61.9293V93.04C61.9293 92.1653 61.7106 91.4987 61.2733 91.04C60.8359 90.5707 60.2386 90.336 59.4813 90.336C58.7133 90.336 58.0999 90.576 57.6413 91.056C57.1933 91.536 56.9693 92.2347 56.9693 93.152V98H55.5133V89.232H56.9693V90.48C57.2573 90.032 57.6466 89.6853 58.1373 89.44C58.6386 89.1947 59.1879 89.072 59.7853 89.072ZM66.4996 87.808C66.2223 87.808 65.9876 87.712 65.7956 87.52C65.6036 87.328 65.5076 87.0933 65.5076 86.816C65.5076 86.5387 65.6036 86.304 65.7956 86.112C65.9876 85.92 66.2223 85.824 66.4996 85.824C66.7663 85.824 66.9903 85.92 67.1716 86.112C67.3636 86.304 67.4596 86.5387 67.4596 86.816C67.4596 87.0933 67.3636 87.328 67.1716 87.52C66.9903 87.712 66.7663 87.808 66.4996 87.808ZM67.2036 89.232V98H65.7476V89.232H67.2036ZM69.1411 93.6C69.1411 92.6933 69.3225 91.904 69.6851 91.232C70.0478 90.5493 70.5491 90.0213 71.1891 89.648C71.8398 89.2747 72.5811 89.088 73.4131 89.088C74.4905 89.088 75.3758 89.3493 76.0691 89.872C76.7731 90.3947 77.2371 91.12 77.4611 92.048H75.8931C75.7438 91.5147 75.4505 91.0933 75.0131 90.784C74.5865 90.4747 74.0531 90.32 73.4131 90.32C72.5811 90.32 71.9091 90.608 71.3971 91.184C70.8851 91.7493 70.6291 92.5547 70.6291 93.6C70.6291 94.656 70.8851 95.472 71.3971 96.048C71.9091 96.624 72.5811 96.912 73.4131 96.912C74.0531 96.912 74.5865 96.7627 75.0131 96.464C75.4398 96.1653 75.7331 95.7387 75.8931 95.184H77.4611C77.2265 96.08 76.7571 96.8 76.0531 97.344C75.3491 97.8773 74.4691 98.144 73.4131 98.144C72.5811 98.144 71.8398 97.9573 71.1891 97.584C70.5491 97.2107 70.0478 96.6827 69.6851 96C69.3225 95.3173 69.1411 94.5173 69.1411 93.6ZM82.5079 98.144C81.8359 98.144 81.2332 98.032 80.6999 97.808C80.1665 97.5733 79.7452 97.2533 79.4359 96.848C79.1265 96.432 78.9559 95.9573 78.9239 95.424H80.4279C80.4705 95.8613 80.6732 96.2187 81.0359 96.496C81.4092 96.7733 81.8945 96.912 82.4919 96.912C83.0465 96.912 83.4839 96.7893 83.8039 96.544C84.1239 96.2987 84.2839 95.9893 84.2839 95.616C84.2839 95.232 84.1132 94.9493 83.7719 94.768C83.4305 94.576 82.9025 94.3893 82.1879 94.208C81.5372 94.0373 81.0039 93.8667 80.5879 93.696C80.1825 93.5147 79.8305 93.2533 79.5319 92.912C79.2439 92.56 79.0999 92.1013 79.0999 91.536C79.0999 91.088 79.2332 90.6773 79.4999 90.304C79.7665 89.9307 80.1452 89.6373 80.6359 89.424C81.1265 89.2 81.6865 89.088 82.3159 89.088C83.2865 89.088 84.0705 89.3333 84.6679 89.824C85.2652 90.3147 85.5852 90.9867 85.6279 91.84H84.1719C84.1399 91.3813 83.9532 91.0133 83.6119 90.736C83.2812 90.4587 82.8332 90.32 82.2679 90.32C81.7452 90.32 81.3292 90.432 81.0199 90.656C80.7105 90.88 80.5559 91.1733 80.5559 91.536C80.5559 91.824 80.6465 92.064 80.8279 92.256C81.0199 92.4373 81.2545 92.5867 81.5319 92.704C81.8199 92.8107 82.2145 92.9333 82.7159 93.072C83.3452 93.2427 83.8572 93.4133 84.2519 93.584C84.6465 93.744 84.9825 93.9893 85.2599 94.32C85.5479 94.6507 85.6972 95.0827 85.7079 95.616C85.7079 96.096 85.5745 96.528 85.3079 96.912C85.0412 97.296 84.6625 97.6 84.1719 97.824C83.6919 98.0373 83.1372 98.144 82.5079 98.144Z" fill="black"/>
<path d="M10.2381 126.848V138H8.78206V132.944H3.10206V138H1.64606V126.848H3.10206V131.744H8.78206V126.848H10.2381ZM16.5482 138.144C15.7269 138.144 14.9802 137.957 14.3082 137.584C13.6469 137.211 13.1242 136.683 12.7402 136C12.3669 135.307 12.1802 134.507 12.1802 133.6C12.1802 132.704 12.3722 131.915 12.7562 131.232C13.1509 130.539 13.6842 130.011 14.3562 129.648C15.0282 129.275 15.7802 129.088 16.6122 129.088C17.4442 129.088 18.1962 129.275 18.8682 129.648C19.5402 130.011 20.0682 130.533 20.4522 131.216C20.8469 131.899 21.0442 132.693 21.0442 133.6C21.0442 134.507 20.8415 135.307 20.4362 136C20.0415 136.683 19.5029 137.211 18.8202 137.584C18.1375 137.957 17.3802 138.144 16.5482 138.144ZM16.5482 136.864C17.0709 136.864 17.5615 136.741 18.0202 136.496C18.4789 136.251 18.8469 135.883 19.1242 135.392C19.4122 134.901 19.5562 134.304 19.5562 133.6C19.5562 132.896 19.4175 132.299 19.1402 131.808C18.8629 131.317 18.5002 130.955 18.0522 130.72C17.6042 130.475 17.1189 130.352 16.5962 130.352C16.0629 130.352 15.5722 130.475 15.1242 130.72C14.6869 130.955 14.3349 131.317 14.0682 131.808C13.8015 132.299 13.6682 132.896 13.6682 133.6C13.6682 134.315 13.7962 134.917 14.0522 135.408C14.3189 135.899 14.6709 136.267 15.1082 136.512C15.5455 136.747 16.0255 136.864 16.5482 136.864ZM33.5026 129.072C34.1852 129.072 34.7932 129.216 35.3266 129.504C35.8599 129.781 36.2812 130.203 36.5906 130.768C36.8999 131.333 37.0546 132.021 37.0546 132.832V138H35.6146V133.04C35.6146 132.165 35.3959 131.499 34.9586 131.04C34.5319 130.571 33.9506 130.336 33.2146 130.336C32.4572 130.336 31.8546 130.581 31.4066 131.072C30.9586 131.552 30.7346 132.251 30.7346 133.168V138H29.2946V133.04C29.2946 132.165 29.0759 131.499 28.6386 131.04C28.2119 130.571 27.6306 130.336 26.8946 130.336C26.1372 130.336 25.5346 130.581 25.0866 131.072C24.6386 131.552 24.4146 132.251 24.4146 133.168V138H22.9586V129.232H24.4146V130.496C24.7026 130.037 25.0866 129.685 25.5666 129.44C26.0572 129.195 26.5959 129.072 27.1826 129.072C27.9186 129.072 28.5692 129.237 29.1346 129.568C29.6999 129.899 30.1212 130.384 30.3986 131.024C30.6439 130.405 31.0492 129.925 31.6146 129.584C32.1799 129.243 32.8092 129.072 33.5026 129.072ZM47.4429 133.28C47.4429 133.557 47.4269 133.851 47.3949 134.16H40.3869C40.4403 135.024 40.7336 135.701 41.2669 136.192C41.8109 136.672 42.4669 136.912 43.2349 136.912C43.8643 136.912 44.3869 136.768 44.8029 136.48C45.2296 136.181 45.5283 135.787 45.6989 135.296H47.2669C47.0323 136.139 46.5629 136.827 45.8589 137.36C45.1549 137.883 44.2803 138.144 43.2349 138.144C42.4029 138.144 41.6563 137.957 40.9949 137.584C40.3443 137.211 39.8323 136.683 39.4589 136C39.0856 135.307 38.8989 134.507 38.8989 133.6C38.8989 132.693 39.0803 131.899 39.4429 131.216C39.8056 130.533 40.3123 130.011 40.9629 129.648C41.6243 129.275 42.3816 129.088 43.2349 129.088C44.0669 129.088 44.8029 129.269 45.4429 129.632C46.0829 129.995 46.5736 130.496 46.9149 131.136C47.2669 131.765 47.4429 132.48 47.4429 133.28ZM45.9389 132.976C45.9389 132.421 45.8163 131.947 45.5709 131.552C45.3256 131.147 44.9896 130.843 44.5629 130.64C44.1469 130.427 43.6829 130.32 43.1709 130.32C42.4349 130.32 41.8056 130.555 41.2829 131.024C40.7709 131.493 40.4776 132.144 40.4029 132.976H45.9389ZM62.1904 138L60.7344 136.528C60.1904 137.093 59.6091 137.515 58.9904 137.792C58.3718 138.059 57.6731 138.192 56.8944 138.192C56.1264 138.192 55.4438 138.053 54.8464 137.776C54.2598 137.499 53.8011 137.104 53.4704 136.592C53.1504 136.08 52.9904 135.483 52.9904 134.8C52.9904 134.021 53.2091 133.339 53.6464 132.752C54.0944 132.155 54.7504 131.685 55.6144 131.344C55.2731 130.939 55.0278 130.565 54.8784 130.224C54.7291 129.883 54.6544 129.509 54.6544 129.104C54.6544 128.635 54.7718 128.213 55.0064 127.84C55.2518 127.456 55.5984 127.157 56.0464 126.944C56.4944 126.731 57.0118 126.624 57.5984 126.624C58.1744 126.624 58.6758 126.736 59.1024 126.96C59.5291 127.184 59.8491 127.499 60.0624 127.904C60.2758 128.299 60.3718 128.741 60.3504 129.232H58.8944C58.9051 128.795 58.7824 128.453 58.5264 128.208C58.2704 127.952 57.9398 127.824 57.5344 127.824C57.1078 127.824 56.7611 127.947 56.4944 128.192C56.2384 128.427 56.1104 128.731 56.1104 129.104C56.1104 129.424 56.1958 129.733 56.3664 130.032C56.5478 130.331 56.8464 130.699 57.2624 131.136L60.5904 134.48L60.8784 134.032L61.9664 132.208H63.5344L62.2224 134.48C62.0411 134.8 61.8278 135.136 61.5824 135.488L64.0944 138H62.1904ZM56.8944 136.944C57.4704 136.944 57.9878 136.832 58.4464 136.608C58.9158 136.384 59.3584 136.037 59.7744 135.568L56.4944 132.272C55.1291 132.795 54.4464 133.621 54.4464 134.752C54.4464 135.381 54.6704 135.904 55.1184 136.32C55.5771 136.736 56.1691 136.944 56.8944 136.944ZM71.1802 136.816H75.0842V138H69.7242V126.848H71.1802V136.816ZM77.3824 127.808C77.1051 127.808 76.8704 127.712 76.6784 127.52C76.4864 127.328 76.3904 127.093 76.3904 126.816C76.3904 126.539 76.4864 126.304 76.6784 126.112C76.8704 125.92 77.1051 125.824 77.3824 125.824C77.6491 125.824 77.8731 125.92 78.0544 126.112C78.2464 126.304 78.3424 126.539 78.3424 126.816C78.3424 127.093 78.2464 127.328 78.0544 127.52C77.8731 127.712 77.6491 127.808 77.3824 127.808ZM78.0864 129.232V138H76.6304V129.232H78.0864ZM84.1359 130.432H82.2959V138H80.8399V130.432H79.7039V129.232H80.8399V128.608C80.8399 127.627 81.0906 126.912 81.5919 126.464C82.1039 126.005 82.9199 125.776 84.0399 125.776V126.992C83.3999 126.992 82.9466 127.12 82.6799 127.376C82.4239 127.621 82.2959 128.032 82.2959 128.608V129.232H84.1359V130.432ZM93.8336 133.28C93.8336 133.557 93.8176 133.851 93.7856 134.16H86.7776C86.8309 135.024 87.1242 135.701 87.6576 136.192C88.2016 136.672 88.8576 136.912 89.6256 136.912C90.2549 136.912 90.7776 136.768 91.1936 136.48C91.6202 136.181 91.9189 135.787 92.0896 135.296H93.6576C93.4229 136.139 92.9536 136.827 92.2496 137.36C91.5456 137.883 90.6709 138.144 89.6256 138.144C88.7936 138.144 88.0469 137.957 87.3856 137.584C86.7349 137.211 86.2229 136.683 85.8496 136C85.4762 135.307 85.2896 134.507 85.2896 133.6C85.2896 132.693 85.4709 131.899 85.8336 131.216C86.1962 130.533 86.7029 130.011 87.3536 129.648C88.0149 129.275 88.7722 129.088 89.6256 129.088C90.4576 129.088 91.1936 129.269 91.8336 129.632C92.4736 129.995 92.9642 130.496 93.3056 131.136C93.6576 131.765 93.8336 132.48 93.8336 133.28ZM92.3296 132.976C92.3296 132.421 92.2069 131.947 91.9616 131.552C91.7162 131.147 91.3802 130.843 90.9536 130.64C90.5376 130.427 90.0736 130.32 89.5616 130.32C88.8256 130.32 88.1962 130.555 87.6736 131.024C87.1616 131.493 86.8682 132.144 86.7936 132.976H92.3296ZM98.8594 138.144C98.1874 138.144 97.5848 138.032 97.0514 137.808C96.5181 137.573 96.0968 137.253 95.7874 136.848C95.4781 136.432 95.3074 135.957 95.2754 135.424H96.7794C96.8221 135.861 97.0248 136.219 97.3874 136.496C97.7608 136.773 98.2461 136.912 98.8434 136.912C99.3981 136.912 99.8354 136.789 100.155 136.544C100.475 136.299 100.635 135.989 100.635 135.616C100.635 135.232 100.465 134.949 100.123 134.768C99.7821 134.576 99.2541 134.389 98.5394 134.208C97.8888 134.037 97.3554 133.867 96.9394 133.696C96.5341 133.515 96.1821 133.253 95.8834 132.912C95.5954 132.56 95.4514 132.101 95.4514 131.536C95.4514 131.088 95.5848 130.677 95.8514 130.304C96.1181 129.931 96.4968 129.637 96.9874 129.424C97.4781 129.2 98.0381 129.088 98.6674 129.088C99.6381 129.088 100.422 129.333 101.019 129.824C101.617 130.315 101.937 130.987 101.979 131.84H100.523C100.491 131.381 100.305 131.013 99.9634 130.736C99.6328 130.459 99.1848 130.32 98.6194 130.32C98.0968 130.32 97.6808 130.432 97.3714 130.656C97.0621 130.88 96.9074 131.173 96.9074 131.536C96.9074 131.824 96.9981 132.064 97.1794 132.256C97.3714 132.437 97.6061 132.587 97.8834 132.704C98.1714 132.811 98.5661 132.933 99.0674 133.072C99.6968 133.243 100.209 133.413 100.603 133.584C100.998 133.744 101.334 133.989 101.611 134.32C101.899 134.651 102.049 135.083 102.059 135.616C102.059 136.096 101.926 136.528 101.659 136.912C101.393 137.296 101.014 137.6 100.523 137.824C100.043 138.037 99.4888 138.144 98.8594 138.144ZM105.891 130.432V135.6C105.891 136.027 105.981 136.331 106.163 136.512C106.344 136.683 106.659 136.768 107.107 136.768H108.179V138H106.867C106.056 138 105.448 137.813 105.043 137.44C104.637 137.067 104.435 136.453 104.435 135.6V130.432H103.299V129.232H104.435V127.024H105.891V129.232H108.179V130.432H105.891ZM117.495 129.232L112.215 142.128H110.711L112.439 137.904L108.903 129.232H110.519L113.271 136.336L115.991 129.232H117.495ZM120.415 126.16V138H118.959V126.16H120.415ZM130.896 133.28C130.896 133.557 130.88 133.851 130.848 134.16H123.84C123.893 135.024 124.187 135.701 124.72 136.192C125.264 136.672 125.92 136.912 126.688 136.912C127.317 136.912 127.84 136.768 128.256 136.48C128.683 136.181 128.981 135.787 129.152 135.296H130.72C130.485 136.139 130.016 136.827 129.312 137.36C128.608 137.883 127.733 138.144 126.688 138.144C125.856 138.144 125.109 137.957 124.448 137.584C123.797 137.211 123.285 136.683 122.912 136C122.539 135.307 122.352 134.507 122.352 133.6C122.352 132.693 122.533 131.899 122.896 131.216C123.259 130.533 123.765 130.011 124.416 129.648C125.077 129.275 125.835 129.088 126.688 129.088C127.52 129.088 128.256 129.269 128.896 129.632C129.536 129.995 130.027 130.496 130.368 131.136C130.72 131.765 130.896 132.48 130.896 133.28ZM129.392 132.976C129.392 132.421 129.269 131.947 129.024 131.552C128.779 131.147 128.443 130.843 128.016 130.64C127.6 130.427 127.136 130.32 126.624 130.32C125.888 130.32 125.259 130.555 124.736 131.024C124.224 131.493 123.931 132.144 123.856 132.976H129.392Z" fill="black"/>
<path d="M12.9112 166.928V178H11.4552V169.744L7.77519 178H6.75119L3.05519 169.728V178H1.59919V166.928H3.16719L7.26319 176.08L11.3592 166.928H12.9112ZM23.3804 173.28C23.3804 173.557 23.3644 173.851 23.3324 174.16H16.3244C16.3778 175.024 16.6711 175.701 17.2044 176.192C17.7484 176.672 18.4044 176.912 19.1724 176.912C19.8018 176.912 20.3244 176.768 20.7404 176.48C21.1671 176.181 21.4658 175.787 21.6364 175.296H23.2044C22.9698 176.139 22.5004 176.827 21.7964 177.36C21.0924 177.883 20.2178 178.144 19.1724 178.144C18.3404 178.144 17.5938 177.957 16.9324 177.584C16.2818 177.211 15.7698 176.683 15.3964 176C15.0231 175.307 14.8364 174.507 14.8364 173.6C14.8364 172.693 15.0178 171.899 15.3804 171.216C15.7431 170.533 16.2498 170.011 16.9004 169.648C17.5618 169.275 18.3191 169.088 19.1724 169.088C20.0044 169.088 20.7404 169.269 21.3804 169.632C22.0204 169.995 22.5111 170.496 22.8524 171.136C23.2044 171.765 23.3804 172.48 23.3804 173.28ZM21.8764 172.976C21.8764 172.421 21.7538 171.947 21.5084 171.552C21.2631 171.147 20.9271 170.843 20.5004 170.64C20.0844 170.427 19.6204 170.32 19.1084 170.32C18.3724 170.32 17.7431 170.555 17.2204 171.024C16.7084 171.493 16.4151 172.144 16.3404 172.976H21.8764ZM24.7583 173.584C24.7583 172.688 24.9396 171.904 25.3023 171.232C25.665 170.549 26.161 170.021 26.7903 169.648C27.4303 169.275 28.145 169.088 28.9343 169.088C29.617 169.088 30.2516 169.248 30.8383 169.568C31.425 169.877 31.873 170.288 32.1823 170.8V166.16H33.6543V178H32.1823V176.352C31.8943 176.875 31.4676 177.307 30.9023 177.648C30.337 177.979 29.6756 178.144 28.9183 178.144C28.1396 178.144 27.4303 177.952 26.7903 177.568C26.161 177.184 25.665 176.645 25.3023 175.952C24.9396 175.259 24.7583 174.469 24.7583 173.584ZM32.1823 173.6C32.1823 172.939 32.049 172.363 31.7823 171.872C31.5156 171.381 31.153 171.008 30.6943 170.752C30.2463 170.485 29.7503 170.352 29.2063 170.352C28.6623 170.352 28.1663 170.48 27.7183 170.736C27.2703 170.992 26.913 171.365 26.6463 171.856C26.3796 172.347 26.2463 172.923 26.2463 173.584C26.2463 174.256 26.3796 174.843 26.6463 175.344C26.913 175.835 27.2703 176.213 27.7183 176.48C28.1663 176.736 28.6623 176.864 29.2063 176.864C29.7503 176.864 30.2463 176.736 30.6943 176.48C31.153 176.213 31.5156 175.835 31.7823 175.344C32.049 174.843 32.1823 174.261 32.1823 173.6ZM36.8668 167.808C36.5895 167.808 36.3548 167.712 36.1628 167.52C35.9708 167.328 35.8748 167.093 35.8748 166.816C35.8748 166.539 35.9708 166.304 36.1628 166.112C36.3548 165.92 36.5895 165.824 36.8668 165.824C37.1335 165.824 37.3575 165.92 37.5388 166.112C37.7308 166.304 37.8268 166.539 37.8268 166.816C37.8268 167.093 37.7308 167.328 37.5388 167.52C37.3575 167.712 37.1335 167.808 36.8668 167.808ZM37.5708 169.232V178H36.1148V169.232H37.5708ZM39.5083 173.6C39.5083 172.693 39.6896 171.904 40.0523 171.232C40.415 170.549 40.9163 170.021 41.5563 169.648C42.207 169.275 42.9483 169.088 43.7803 169.088C44.8576 169.088 45.743 169.349 46.4363 169.872C47.1403 170.395 47.6043 171.12 47.8283 172.048H46.2603C46.111 171.515 45.8176 171.093 45.3803 170.784C44.9536 170.475 44.4203 170.32 43.7803 170.32C42.9483 170.32 42.2763 170.608 41.7643 171.184C41.2523 171.749 40.9963 172.555 40.9963 173.6C40.9963 174.656 41.2523 175.472 41.7643 176.048C42.2763 176.624 42.9483 176.912 43.7803 176.912C44.4203 176.912 44.9536 176.763 45.3803 176.464C45.807 176.165 46.1003 175.739 46.2603 175.184H47.8283C47.5936 176.08 47.1243 176.8 46.4203 177.344C45.7163 177.877 44.8363 178.144 43.7803 178.144C42.9483 178.144 42.207 177.957 41.5563 177.584C40.9163 177.211 40.415 176.683 40.0523 176C39.6896 175.317 39.5083 174.517 39.5083 173.6ZM50.5231 167.808C50.2457 167.808 50.0111 167.712 49.8191 167.52C49.6271 167.328 49.5311 167.093 49.5311 166.816C49.5311 166.539 49.6271 166.304 49.8191 166.112C50.0111 165.92 50.2457 165.824 50.5231 165.824C50.7897 165.824 51.0137 165.92 51.1951 166.112C51.3871 166.304 51.4831 166.539 51.4831 166.816C51.4831 167.093 51.3871 167.328 51.1951 167.52C51.0137 167.712 50.7897 167.808 50.5231 167.808ZM51.2271 169.232V178H49.7711V169.232H51.2271ZM57.9806 169.072C59.0472 169.072 59.9112 169.397 60.5726 170.048C61.2339 170.688 61.5646 171.616 61.5646 172.832V178H60.1246V173.04C60.1246 172.165 59.9059 171.499 59.4686 171.04C59.0312 170.571 58.4339 170.336 57.6766 170.336C56.9086 170.336 56.2952 170.576 55.8366 171.056C55.3886 171.536 55.1646 172.235 55.1646 173.152V178H53.7086V169.232H55.1646V170.48C55.4526 170.032 55.8419 169.685 56.3326 169.44C56.8339 169.195 57.3832 169.072 57.9806 169.072ZM71.9429 173.28C71.9429 173.557 71.9269 173.851 71.8949 174.16H64.8869C64.9403 175.024 65.2336 175.701 65.7669 176.192C66.3109 176.672 66.9669 176.912 67.7349 176.912C68.3643 176.912 68.8869 176.768 69.3029 176.48C69.7296 176.181 70.0283 175.787 70.1989 175.296H71.7669C71.5323 176.139 71.0629 176.827 70.3589 177.36C69.6549 177.883 68.7803 178.144 67.7349 178.144C66.9029 178.144 66.1563 177.957 65.4949 177.584C64.8443 177.211 64.3323 176.683 63.9589 176C63.5856 175.307 63.3989 174.507 63.3989 173.6C63.3989 172.693 63.5803 171.899 63.9429 171.216C64.3056 170.533 64.8123 170.011 65.4629 169.648C66.1243 169.275 66.8816 169.088 67.7349 169.088C68.5669 169.088 69.3029 169.269 69.9429 169.632C70.5829 169.995 71.0736 170.496 71.4149 171.136C71.7669 171.765 71.9429 172.48 71.9429 173.28ZM70.4389 172.976C70.4389 172.421 70.3163 171.947 70.0709 171.552C69.8256 171.147 69.4896 170.843 69.0629 170.64C68.6469 170.427 68.1829 170.32 67.6709 170.32C66.9349 170.32 66.3056 170.555 65.7829 171.024C65.2709 171.493 64.9776 172.144 64.9029 172.976H70.4389Z" fill="black"/>
<path d="M4.84613 218.112C4.11013 218.112 3.44879 217.984 2.86213 217.728C2.28613 217.461 1.83279 217.099 1.50213 216.64C1.17146 216.171 1.00079 215.632 0.990125 215.024H2.54213C2.59546 215.547 2.80879 215.989 3.18213 216.352C3.56613 216.704 4.12079 216.88 4.84613 216.88C5.53946 216.88 6.08346 216.709 6.47813 216.368C6.88346 216.016 7.08613 215.568 7.08613 215.024C7.08613 214.597 6.96879 214.251 6.73413 213.984C6.49946 213.717 6.20613 213.515 5.85413 213.376C5.50213 213.237 5.02746 213.088 4.43013 212.928C3.69413 212.736 3.10213 212.544 2.65413 212.352C2.21679 212.16 1.83813 211.861 1.51813 211.456C1.20879 211.04 1.05413 210.485 1.05413 209.792C1.05413 209.184 1.20879 208.645 1.51813 208.176C1.82746 207.707 2.25946 207.344 2.81413 207.088C3.37946 206.832 4.02479 206.704 4.75013 206.704C5.79546 206.704 6.64879 206.965 7.31013 207.488C7.98213 208.011 8.36079 208.704 8.44613 209.568H6.84613C6.79279 209.141 6.56879 208.768 6.17413 208.448C5.77946 208.117 5.25679 207.952 4.60613 207.952C3.99813 207.952 3.50213 208.112 3.11813 208.432C2.73413 208.741 2.54213 209.179 2.54213 209.744C2.54213 210.149 2.65413 210.48 2.87813 210.736C3.11279 210.992 3.39546 211.189 3.72613 211.328C4.06746 211.456 4.54213 211.605 5.15013 211.776C5.88613 211.979 6.47813 212.181 6.92613 212.384C7.37413 212.576 7.75813 212.88 8.07812 213.296C8.39813 213.701 8.55813 214.256 8.55813 214.96C8.55813 215.504 8.41413 216.016 8.12613 216.496C7.83813 216.976 7.41146 217.365 6.84613 217.664C6.28079 217.963 5.61413 218.112 4.84613 218.112ZM12.1568 210.848C12.4448 210.347 12.8714 209.931 13.4368 209.6C14.0128 209.259 14.6794 209.088 15.4368 209.088C16.2154 209.088 16.9194 209.275 17.5487 209.648C18.1887 210.021 18.6901 210.549 19.0528 211.232C19.4154 211.904 19.5968 212.688 19.5968 213.584C19.5968 214.469 19.4154 215.259 19.0528 215.952C18.6901 216.645 18.1887 217.184 17.5487 217.568C16.9194 217.952 16.2154 218.144 15.4368 218.144C14.6901 218.144 14.0288 217.979 13.4528 217.648C12.8874 217.307 12.4554 216.885 12.1568 216.384V222.16H10.7008V209.232H12.1568V210.848ZM18.1088 213.584C18.1088 212.923 17.9754 212.347 17.7088 211.856C17.4421 211.365 17.0794 210.992 16.6208 210.736C16.1728 210.48 15.6768 210.352 15.1328 210.352C14.5994 210.352 14.1034 210.485 13.6448 210.752C13.1968 211.008 12.8341 211.387 12.5568 211.888C12.2901 212.379 12.1568 212.949 12.1568 213.6C12.1568 214.261 12.2901 214.843 12.5568 215.344C12.8341 215.835 13.1968 216.213 13.6448 216.48C14.1034 216.736 14.5994 216.864 15.1328 216.864C15.6768 216.864 16.1728 216.736 16.6208 216.48C17.0794 216.213 17.4421 215.835 17.7088 215.344C17.9754 214.843 18.1088 214.256 18.1088 213.584ZM25.3373 218.144C24.5159 218.144 23.7693 217.957 23.0973 217.584C22.4359 217.211 21.9133 216.683 21.5293 216C21.1559 215.307 20.9693 214.507 20.9693 213.6C20.9693 212.704 21.1613 211.915 21.5453 211.232C21.9399 210.539 22.4733 210.011 23.1453 209.648C23.8173 209.275 24.5693 209.088 25.4013 209.088C26.2333 209.088 26.9853 209.275 27.6573 209.648C28.3293 210.011 28.8573 210.533 29.2413 211.216C29.6359 211.899 29.8333 212.693 29.8333 213.6C29.8333 214.507 29.6306 215.307 29.2253 216C28.8306 216.683 28.2919 217.211 27.6093 217.584C26.9266 217.957 26.1693 218.144 25.3373 218.144ZM25.3373 216.864C25.8599 216.864 26.3506 216.741 26.8093 216.496C27.2679 216.251 27.6359 215.883 27.9133 215.392C28.2013 214.901 28.3453 214.304 28.3453 213.6C28.3453 212.896 28.2066 212.299 27.9293 211.808C27.6519 211.317 27.2893 210.955 26.8413 210.72C26.3933 210.475 25.9079 210.352 25.3853 210.352C24.8519 210.352 24.3613 210.475 23.9133 210.72C23.4759 210.955 23.1239 211.317 22.8573 211.808C22.5906 212.299 22.4573 212.896 22.4573 213.6C22.4573 214.315 22.5853 214.917 22.8413 215.408C23.1079 215.899 23.4599 216.267 23.8973 216.512C24.3346 216.747 24.8146 216.864 25.3373 216.864ZM33.2036 210.656C33.4596 210.155 33.8223 209.765 34.2916 209.488C34.7716 209.211 35.353 209.072 36.0356 209.072V210.576H35.6516C34.0196 210.576 33.2036 211.461 33.2036 213.232V218H31.7476V209.232H33.2036V210.656ZM39.4924 210.432V215.6C39.4924 216.027 39.583 216.331 39.7644 216.512C39.9457 216.683 40.2604 216.768 40.7084 216.768H41.7804V218H40.4684C39.6577 218 39.0497 217.813 38.6444 217.44C38.239 217.067 38.0364 216.453 38.0364 215.6V210.432H36.9004V209.232H38.0364V207.024H39.4924V209.232H41.7804V210.432H39.4924ZM46.6485 218.144C45.9765 218.144 45.3738 218.032 44.8405 217.808C44.3072 217.573 43.8858 217.253 43.5765 216.848C43.2672 216.432 43.0965 215.957 43.0645 215.424H44.5685C44.6112 215.861 44.8138 216.219 45.1765 216.496C45.5498 216.773 46.0352 216.912 46.6325 216.912C47.1872 216.912 47.6245 216.789 47.9445 216.544C48.2645 216.299 48.4245 215.989 48.4245 215.616C48.4245 215.232 48.2538 214.949 47.9125 214.768C47.5712 214.576 47.0432 214.389 46.3285 214.208C45.6778 214.037 45.1445 213.867 44.7285 213.696C44.3232 213.515 43.9712 213.253 43.6725 212.912C43.3845 212.56 43.2405 212.101 43.2405 211.536C43.2405 211.088 43.3738 210.677 43.6405 210.304C43.9072 209.931 44.2858 209.637 44.7765 209.424C45.2672 209.2 45.8272 209.088 46.4565 209.088C47.4272 209.088 48.2112 209.333 48.8085 209.824C49.4058 210.315 49.7258 210.987 49.7685 211.84H48.3125C48.2805 211.381 48.0938 211.013 47.7525 210.736C47.4218 210.459 46.9738 210.32 46.4085 210.32C45.8858 210.32 45.4698 210.432 45.1605 210.656C44.8512 210.88 44.6965 211.173 44.6965 211.536C44.6965 211.824 44.7872 212.064 44.9685 212.256C45.1605 212.437 45.3952 212.587 45.6725 212.704C45.9605 212.811 46.3552 212.933 46.8565 213.072C47.4858 213.243 47.9978 213.413 48.3925 213.584C48.7872 213.744 49.1232 213.989 49.4005 214.32C49.6885 214.651 49.8378 215.083 49.8485 215.616C49.8485 216.096 49.7152 216.528 49.4485 216.912C49.1818 217.296 48.8032 217.6 48.3125 217.824C47.8325 218.037 47.2778 218.144 46.6485 218.144ZM64.7295 218L63.2735 216.528C62.7295 217.093 62.1482 217.515 61.5295 217.792C60.9108 218.059 60.2122 218.192 59.4335 218.192C58.6655 218.192 57.9828 218.053 57.3855 217.776C56.7988 217.499 56.3402 217.104 56.0095 216.592C55.6895 216.08 55.5295 215.483 55.5295 214.8C55.5295 214.021 55.7482 213.339 56.1855 212.752C56.6335 212.155 57.2895 211.685 58.1535 211.344C57.8122 210.939 57.5668 210.565 57.4175 210.224C57.2682 209.883 57.1935 209.509 57.1935 209.104C57.1935 208.635 57.3108 208.213 57.5455 207.84C57.7908 207.456 58.1375 207.157 58.5855 206.944C59.0335 206.731 59.5508 206.624 60.1375 206.624C60.7135 206.624 61.2148 206.736 61.6415 206.96C62.0682 207.184 62.3882 207.499 62.6015 207.904C62.8148 208.299 62.9108 208.741 62.8895 209.232H61.4335C61.4442 208.795 61.3215 208.453 61.0655 208.208C60.8095 207.952 60.4788 207.824 60.0735 207.824C59.6468 207.824 59.3002 207.947 59.0335 208.192C58.7775 208.427 58.6495 208.731 58.6495 209.104C58.6495 209.424 58.7348 209.733 58.9055 210.032C59.0868 210.331 59.3855 210.699 59.8015 211.136L63.1295 214.48L63.4175 214.032L64.5055 212.208H66.0735L64.7615 214.48C64.5802 214.8 64.3668 215.136 64.1215 215.488L66.6335 218H64.7295ZM59.4335 216.944C60.0095 216.944 60.5268 216.832 60.9855 216.608C61.4548 216.384 61.8975 216.037 62.3135 215.568L59.0335 212.272C57.6682 212.795 56.9855 213.621 56.9855 214.752C56.9855 215.381 57.2095 215.904 57.6575 216.32C58.1162 216.736 58.7082 216.944 59.4335 216.944ZM77.3193 218.112C76.2846 218.112 75.3406 217.872 74.4873 217.392C73.6339 216.901 72.9566 216.224 72.4553 215.36C71.9646 214.485 71.7193 213.504 71.7193 212.416C71.7193 211.328 71.9646 210.352 72.4553 209.488C72.9566 208.613 73.6339 207.936 74.4873 207.456C75.3406 206.965 76.2846 206.72 77.3193 206.72C78.3646 206.72 79.3139 206.965 80.1673 207.456C81.0206 207.936 81.6926 208.608 82.1833 209.472C82.6739 210.336 82.9193 211.317 82.9193 212.416C82.9193 213.515 82.6739 214.496 82.1833 215.36C81.6926 216.224 81.0206 216.901 80.1673 217.392C79.3139 217.872 78.3646 218.112 77.3193 218.112ZM77.3193 216.848C78.0979 216.848 78.7966 216.667 79.4153 216.304C80.0446 215.941 80.5353 215.424 80.8873 214.752C81.2499 214.08 81.4313 213.301 81.4313 212.416C81.4313 211.52 81.2499 210.741 80.8873 210.08C80.5353 209.408 80.0499 208.891 79.4313 208.528C78.8126 208.165 78.1086 207.984 77.3193 207.984C76.5299 207.984 75.8259 208.165 75.2073 208.528C74.5886 208.891 74.0979 209.408 73.7353 210.08C73.3833 210.741 73.2073 211.52 73.2073 212.416C73.2073 213.301 73.3833 214.08 73.7353 214.752C74.0979 215.424 74.5886 215.941 75.2073 216.304C75.8366 216.667 76.5406 216.848 77.3193 216.848ZM92.6174 209.232V218H91.1614V216.704C90.884 217.152 90.4947 217.504 89.9934 217.76C89.5027 218.005 88.9587 218.128 88.3614 218.128C87.6787 218.128 87.0654 217.989 86.5214 217.712C85.9774 217.424 85.5454 216.997 85.2254 216.432C84.916 215.867 84.7614 215.179 84.7614 214.368V209.232H86.2014V214.176C86.2014 215.04 86.42 215.707 86.8574 216.176C87.2947 216.635 87.892 216.864 88.6494 216.864C89.428 216.864 90.0414 216.624 90.4894 216.144C90.9374 215.664 91.1614 214.965 91.1614 214.048V209.232H92.6174ZM96.8518 210.432V215.6C96.8518 216.027 96.9424 216.331 97.1238 216.512C97.3051 216.683 97.6198 216.768 98.0677 216.768H99.1398V218H97.8278C97.0171 218 96.4091 217.813 96.0038 217.44C95.5984 217.067 95.3958 216.453 95.3958 215.6V210.432H94.2598V209.232H95.3958V207.024H96.8518V209.232H99.1398V210.432H96.8518ZM100.36 213.584C100.36 212.688 100.541 211.904 100.904 211.232C101.267 210.549 101.763 210.021 102.392 209.648C103.032 209.275 103.747 209.088 104.536 209.088C105.219 209.088 105.853 209.248 106.44 209.568C107.027 209.877 107.475 210.288 107.784 210.8V206.16H109.256V218H107.784V216.352C107.496 216.875 107.069 217.307 106.504 217.648C105.939 217.979 105.277 218.144 104.52 218.144C103.741 218.144 103.032 217.952 102.392 217.568C101.763 217.184 101.267 216.645 100.904 215.952C100.541 215.259 100.36 214.469 100.36 213.584ZM107.784 213.6C107.784 212.939 107.651 212.363 107.384 211.872C107.117 211.381 106.755 211.008 106.296 210.752C105.848 210.485 105.352 210.352 104.808 210.352C104.264 210.352 103.768 210.48 103.32 210.736C102.872 210.992 102.515 211.365 102.248 211.856C101.981 212.347 101.848 212.923 101.848 213.584C101.848 214.256 101.981 214.843 102.248 215.344C102.515 215.835 102.872 216.213 103.32 216.48C103.768 216.736 104.264 216.864 104.808 216.864C105.352 216.864 105.848 216.736 106.296 216.48C106.755 216.213 107.117 215.835 107.384 215.344C107.651 214.843 107.784 214.261 107.784 213.6ZM115.54 218.144C114.719 218.144 113.972 217.957 113.3 217.584C112.639 217.211 112.116 216.683 111.732 216C111.359 215.307 111.172 214.507 111.172 213.6C111.172 212.704 111.364 211.915 111.748 211.232C112.143 210.539 112.676 210.011 113.348 209.648C114.02 209.275 114.772 209.088 115.604 209.088C116.436 209.088 117.188 209.275 117.86 209.648C118.532 210.011 119.06 210.533 119.444 211.216C119.839 211.899 120.036 212.693 120.036 213.6C120.036 214.507 119.834 215.307 119.428 216C119.034 216.683 118.495 217.211 117.812 217.584C117.13 217.957 116.372 218.144 115.54 218.144ZM115.54 216.864C116.063 216.864 116.554 216.741 117.012 216.496C117.471 216.251 117.839 215.883 118.116 215.392C118.404 214.901 118.548 214.304 118.548 213.6C118.548 212.896 118.41 212.299 118.132 211.808C117.855 211.317 117.492 210.955 117.044 210.72C116.596 210.475 116.111 210.352 115.588 210.352C115.055 210.352 114.564 210.475 114.116 210.72C113.679 210.955 113.327 211.317 113.06 211.808C112.794 212.299 112.66 212.896 112.66 213.6C112.66 214.315 112.788 214.917 113.044 215.408C113.311 215.899 113.663 216.267 114.1 216.512C114.538 216.747 115.018 216.864 115.54 216.864ZM125.775 218.144C124.953 218.144 124.207 217.957 123.535 217.584C122.873 217.211 122.351 216.683 121.967 216C121.593 215.307 121.407 214.507 121.407 213.6C121.407 212.704 121.599 211.915 121.983 211.232C122.377 210.539 122.911 210.011 123.583 209.648C124.255 209.275 125.007 209.088 125.839 209.088C126.671 209.088 127.423 209.275 128.095 209.648C128.767 210.011 129.295 210.533 129.679 211.216C130.073 211.899 130.271 212.693 130.271 213.6C130.271 214.507 130.068 215.307 129.663 216C129.268 216.683 128.729 217.211 128.047 217.584C127.364 217.957 126.607 218.144 125.775 218.144ZM125.775 216.864C126.297 216.864 126.788 216.741 127.247 216.496C127.705 216.251 128.073 215.883 128.351 215.392C128.639 214.901 128.783 214.304 128.783 213.6C128.783 212.896 128.644 212.299 128.367 211.808C128.089 211.317 127.727 210.955 127.279 210.72C126.831 210.475 126.345 210.352 125.823 210.352C125.289 210.352 124.799 210.475 124.351 210.72C123.913 210.955 123.561 211.317 123.295 211.808C123.028 212.299 122.895 212.896 122.895 213.6C122.895 214.315 123.023 214.917 123.279 215.408C123.545 215.899 123.897 216.267 124.335 216.512C124.772 216.747 125.252 216.864 125.775 216.864ZM133.641 210.656C133.897 210.155 134.26 209.765 134.729 209.488C135.209 209.211 135.79 209.072 136.473 209.072V210.576H136.089C134.457 210.576 133.641 211.461 133.641 213.232V218H132.185V209.232H133.641V210.656Z" fill="black"/>
<path d="M6.84725 252.256C7.25258 252.32 7.62058 252.485 7.95125 252.752C8.29258 253.019 8.55925 253.349 8.75125 253.744C8.95392 254.139 9.05525 254.56 9.05525 255.008C9.05525 255.573 8.91125 256.085 8.62325 256.544C8.33525 256.992 7.91392 257.349 7.35925 257.616C6.81525 257.872 6.16992 258 5.42325 258H1.26325V246.848H5.26325C6.02058 246.848 6.66592 246.976 7.19925 247.232C7.73258 247.477 8.13258 247.813 8.39925 248.24C8.66592 248.667 8.79925 249.147 8.79925 249.68C8.79925 250.341 8.61792 250.891 8.25525 251.328C7.90325 251.755 7.43392 252.064 6.84725 252.256ZM2.71925 251.664H5.16725C5.84992 251.664 6.37792 251.504 6.75125 251.184C7.12458 250.864 7.31125 250.421 7.31125 249.856C7.31125 249.291 7.12458 248.848 6.75125 248.528C6.37792 248.208 5.83925 248.048 5.13525 248.048H2.71925V251.664ZM5.29525 256.8C6.02058 256.8 6.58592 256.629 6.99125 256.288C7.39658 255.947 7.59925 255.472 7.59925 254.864C7.59925 254.245 7.38592 253.76 6.95925 253.408C6.53258 253.045 5.96192 252.864 5.24725 252.864H2.71925V256.8H5.29525ZM10.5318 253.584C10.5318 252.688 10.7131 251.904 11.0758 251.232C11.4384 250.549 11.9344 250.021 12.5638 249.648C13.2038 249.275 13.9131 249.088 14.6918 249.088C15.4598 249.088 16.1264 249.253 16.6918 249.584C17.2571 249.915 17.6784 250.331 17.9558 250.832V249.232H19.4278V258H17.9558V256.368C17.6678 256.88 17.2358 257.307 16.6598 257.648C16.0944 257.979 15.4331 258.144 14.6758 258.144C13.8971 258.144 13.1931 257.952 12.5638 257.568C11.9344 257.184 11.4384 256.645 11.0758 255.952C10.7131 255.259 10.5318 254.469 10.5318 253.584ZM17.9558 253.6C17.9558 252.939 17.8224 252.363 17.5558 251.872C17.2891 251.381 16.9264 251.008 16.4678 250.752C16.0198 250.485 15.5238 250.352 14.9798 250.352C14.4358 250.352 13.9398 250.48 13.4918 250.736C13.0438 250.992 12.6864 251.365 12.4198 251.856C12.1531 252.347 12.0198 252.923 12.0198 253.584C12.0198 254.256 12.1531 254.843 12.4198 255.344C12.6864 255.835 13.0438 256.213 13.4918 256.48C13.9398 256.736 14.4358 256.864 14.9798 256.864C15.5238 256.864 16.0198 256.736 16.4678 256.48C16.9264 256.213 17.2891 255.835 17.5558 255.344C17.8224 254.843 17.9558 254.261 17.9558 253.6ZM23.3443 250.864C23.6429 250.341 24.0803 249.915 24.6562 249.584C25.2323 249.253 25.8883 249.088 26.6243 249.088C27.4136 249.088 28.1229 249.275 28.7523 249.648C29.3816 250.021 29.8776 250.549 30.2403 251.232C30.6029 251.904 30.7843 252.688 30.7843 253.584C30.7843 254.469 30.6029 255.259 30.2403 255.952C29.8776 256.645 29.3762 257.184 28.7362 257.568C28.1069 257.952 27.4029 258.144 26.6243 258.144C25.8669 258.144 25.2003 257.979 24.6243 257.648C24.0589 257.317 23.6323 256.896 23.3443 256.384V258H21.8883V246.16H23.3443V250.864ZM29.2963 253.584C29.2963 252.923 29.1629 252.347 28.8963 251.856C28.6296 251.365 28.2669 250.992 27.8083 250.736C27.3603 250.48 26.8643 250.352 26.3203 250.352C25.7869 250.352 25.2909 250.485 24.8323 250.752C24.3843 251.008 24.0216 251.387 23.7443 251.888C23.4776 252.379 23.3443 252.949 23.3443 253.6C23.3443 254.261 23.4776 254.843 23.7443 255.344C24.0216 255.835 24.3843 256.213 24.8323 256.48C25.2909 256.736 25.7869 256.864 26.3203 256.864C26.8643 256.864 27.3603 256.736 27.8083 256.48C28.2669 256.213 28.6296 255.835 28.8963 255.344C29.1629 254.843 29.2963 254.256 29.2963 253.584ZM40.2528 249.232L34.9728 262.128H33.4688L35.1968 257.904L31.6608 249.232H33.2768L36.0288 256.336L38.7488 249.232H40.2528ZM41.9404 246.848H43.5564L42.0204 250.48H40.9964L41.9404 246.848ZM48.3204 258.144C47.6484 258.144 47.0457 258.032 46.5124 257.808C45.979 257.573 45.5577 257.253 45.2484 256.848C44.939 256.432 44.7684 255.957 44.7364 255.424H46.2404C46.283 255.861 46.4857 256.219 46.8484 256.496C47.2217 256.773 47.707 256.912 48.3044 256.912C48.859 256.912 49.2964 256.789 49.6164 256.544C49.9364 256.299 50.0964 255.989 50.0964 255.616C50.0964 255.232 49.9257 254.949 49.5844 254.768C49.243 254.576 48.715 254.389 48.0004 254.208C47.3497 254.037 46.8164 253.867 46.4004 253.696C45.995 253.515 45.643 253.253 45.3444 252.912C45.0564 252.56 44.9124 252.101 44.9124 251.536C44.9124 251.088 45.0457 250.677 45.3124 250.304C45.579 249.931 45.9577 249.637 46.4484 249.424C46.939 249.2 47.499 249.088 48.1284 249.088C49.099 249.088 49.883 249.333 50.4804 249.824C51.0777 250.315 51.3977 250.987 51.4404 251.84H49.9844C49.9524 251.381 49.7657 251.013 49.4244 250.736C49.0937 250.459 48.6457 250.32 48.0804 250.32C47.5577 250.32 47.1417 250.432 46.8324 250.656C46.523 250.88 46.3684 251.173 46.3684 251.536C46.3684 251.824 46.459 252.064 46.6404 252.256C46.8324 252.437 47.067 252.587 47.3444 252.704C47.6324 252.811 48.027 252.933 48.5284 253.072C49.1577 253.243 49.6697 253.413 50.0644 253.584C50.459 253.744 50.795 253.989 51.0724 254.32C51.3604 254.651 51.5097 255.083 51.5204 255.616C51.5204 256.096 51.387 256.528 51.1204 256.912C50.8537 257.296 50.475 257.6 49.9844 257.824C49.5044 258.037 48.9497 258.144 48.3204 258.144ZM66.4014 258L64.9454 256.528C64.4014 257.093 63.82 257.515 63.2014 257.792C62.5827 258.059 61.884 258.192 61.1054 258.192C60.3374 258.192 59.6547 258.053 59.0574 257.776C58.4707 257.499 58.012 257.104 57.6814 256.592C57.3614 256.08 57.2014 255.483 57.2014 254.8C57.2014 254.021 57.42 253.339 57.8574 252.752C58.3054 252.155 58.9614 251.685 59.8254 251.344C59.484 250.939 59.2387 250.565 59.0894 250.224C58.94 249.883 58.8654 249.509 58.8654 249.104C58.8654 248.635 58.9827 248.213 59.2174 247.84C59.4627 247.456 59.8094 247.157 60.2574 246.944C60.7054 246.731 61.2227 246.624 61.8094 246.624C62.3854 246.624 62.8867 246.736 63.3134 246.96C63.74 247.184 64.06 247.499 64.2734 247.904C64.4867 248.299 64.5827 248.741 64.5614 249.232H63.1054C63.116 248.795 62.9934 248.453 62.7374 248.208C62.4814 247.952 62.1507 247.824 61.7454 247.824C61.3187 247.824 60.972 247.947 60.7054 248.192C60.4494 248.427 60.3214 248.731 60.3214 249.104C60.3214 249.424 60.4067 249.733 60.5774 250.032C60.7587 250.331 61.0574 250.699 61.4734 251.136L64.8014 254.48L65.0894 254.032L66.1774 252.208H67.7454L66.4334 254.48C66.252 254.8 66.0387 255.136 65.7934 255.488L68.3054 258H66.4014ZM61.1054 256.944C61.6814 256.944 62.1987 256.832 62.6574 256.608C63.1267 256.384 63.5694 256.037 63.9854 255.568L60.7054 252.272C59.34 252.795 58.6574 253.621 58.6574 254.752C58.6574 255.381 58.8814 255.904 59.3294 256.32C59.788 256.736 60.38 256.944 61.1054 256.944ZM80.7991 246.848V248.032H77.7591V258H76.3031V248.032H73.2471V246.848H80.7991ZM86.4154 258.144C85.594 258.144 84.8474 257.957 84.1754 257.584C83.514 257.211 82.9914 256.683 82.6074 256C82.234 255.307 82.0474 254.507 82.0474 253.6C82.0474 252.704 82.2394 251.915 82.6234 251.232C83.018 250.539 83.5514 250.011 84.2234 249.648C84.8954 249.275 85.6474 249.088 86.4794 249.088C87.3114 249.088 88.0634 249.275 88.7354 249.648C89.4074 250.011 89.9354 250.533 90.3194 251.216C90.714 251.899 90.9114 252.693 90.9114 253.6C90.9114 254.507 90.7087 255.307 90.3034 256C89.9087 256.683 89.37 257.211 88.6874 257.584C88.0047 257.957 87.2474 258.144 86.4154 258.144ZM86.4154 256.864C86.938 256.864 87.4287 256.741 87.8874 256.496C88.346 256.251 88.714 255.883 88.9914 255.392C89.2794 254.901 89.4234 254.304 89.4234 253.6C89.4234 252.896 89.2847 252.299 89.0074 251.808C88.73 251.317 88.3674 250.955 87.9194 250.72C87.4714 250.475 86.986 250.352 86.4634 250.352C85.93 250.352 85.4394 250.475 84.9914 250.72C84.554 250.955 84.202 251.317 83.9354 251.808C83.6687 252.299 83.5354 252.896 83.5354 253.6C83.5354 254.315 83.6634 254.917 83.9194 255.408C84.186 255.899 84.538 256.267 84.9754 256.512C85.4127 256.747 85.8927 256.864 86.4154 256.864ZM100.378 249.232L95.0978 262.128H93.5938L95.3218 257.904L91.7858 249.232H93.4018L96.1538 256.336L98.8738 249.232H100.378ZM104.945 258.144C104.273 258.144 103.671 258.032 103.137 257.808C102.604 257.573 102.183 257.253 101.873 256.848C101.564 256.432 101.393 255.957 101.361 255.424H102.865C102.908 255.861 103.111 256.219 103.473 256.496C103.847 256.773 104.332 256.912 104.929 256.912C105.484 256.912 105.921 256.789 106.241 256.544C106.561 256.299 106.721 255.989 106.721 255.616C106.721 255.232 106.551 254.949 106.209 254.768C105.868 254.576 105.34 254.389 104.625 254.208C103.975 254.037 103.441 253.867 103.025 253.696C102.62 253.515 102.268 253.253 101.969 252.912C101.681 252.56 101.537 252.101 101.537 251.536C101.537 251.088 101.671 250.677 101.937 250.304C102.204 249.931 102.583 249.637 103.073 249.424C103.564 249.2 104.124 249.088 104.753 249.088C105.724 249.088 106.508 249.333 107.105 249.824C107.703 250.315 108.023 250.987 108.065 251.84H106.609C106.577 251.381 106.391 251.013 106.049 250.736C105.719 250.459 105.271 250.32 104.705 250.32C104.183 250.32 103.767 250.432 103.457 250.656C103.148 250.88 102.993 251.173 102.993 251.536C102.993 251.824 103.084 252.064 103.265 252.256C103.457 252.437 103.692 252.587 103.969 252.704C104.257 252.811 104.652 252.933 105.153 253.072C105.783 253.243 106.295 253.413 106.689 253.584C107.084 253.744 107.42 253.989 107.697 254.32C107.985 254.651 108.135 255.083 108.145 255.616C108.145 256.096 108.012 256.528 107.745 256.912C107.479 257.296 107.1 257.6 106.609 257.824C106.129 258.037 105.575 258.144 104.945 258.144Z" fill="black"/>
<path d="M10.0706 290.08C9.76129 289.429 9.31329 288.928 8.72663 288.576C8.13996 288.213 7.45729 288.032 6.67863 288.032C5.89996 288.032 5.19596 288.213 4.56663 288.576C3.94796 288.928 3.45729 289.44 3.09463 290.112C2.74263 290.773 2.56663 291.541 2.56663 292.416C2.56663 293.291 2.74263 294.059 3.09463 294.72C3.45729 295.381 3.94796 295.893 4.56663 296.256C5.19596 296.608 5.89996 296.784 6.67863 296.784C7.76663 296.784 8.66263 296.459 9.36663 295.808C10.0706 295.157 10.4813 294.277 10.5986 293.168H6.15063V291.984H12.1506V293.104C12.0653 294.021 11.7773 294.864 11.2866 295.632C10.796 296.389 10.1506 296.992 9.35063 297.44C8.55063 297.877 7.65996 298.096 6.67863 298.096C5.64396 298.096 4.69996 297.856 3.84663 297.376C2.99329 296.885 2.31596 296.208 1.81463 295.344C1.32396 294.48 1.07863 293.504 1.07863 292.416C1.07863 291.328 1.32396 290.352 1.81463 289.488C2.31596 288.613 2.99329 287.936 3.84663 287.456C4.69996 286.965 5.64396 286.72 6.67863 286.72C7.86263 286.72 8.90796 287.013 9.81463 287.6C10.732 288.187 11.3986 289.013 11.8146 290.08H10.0706ZM15.5318 290.656C15.7878 290.155 16.1504 289.765 16.6198 289.488C17.0998 289.211 17.6811 289.072 18.3638 289.072V290.576H17.9798C16.3478 290.576 15.5318 291.461 15.5318 293.232V298H14.0758V289.232H15.5318V290.656ZM23.8685 298.144C23.0472 298.144 22.3005 297.957 21.6285 297.584C20.9672 297.211 20.4445 296.683 20.0605 296C19.6872 295.307 19.5005 294.507 19.5005 293.6C19.5005 292.704 19.6925 291.915 20.0765 291.232C20.4712 290.539 21.0045 290.011 21.6765 289.648C22.3485 289.275 23.1005 289.088 23.9325 289.088C24.7645 289.088 25.5165 289.275 26.1885 289.648C26.8605 290.011 27.3885 290.533 27.7725 291.216C28.1672 291.899 28.3645 292.693 28.3645 293.6C28.3645 294.507 28.1618 295.307 27.7565 296C27.3618 296.683 26.8232 297.211 26.1405 297.584C25.4578 297.957 24.7005 298.144 23.8685 298.144ZM23.8685 296.864C24.3912 296.864 24.8818 296.741 25.3405 296.496C25.7992 296.251 26.1672 295.883 26.4445 295.392C26.7325 294.901 26.8765 294.304 26.8765 293.6C26.8765 292.896 26.7378 292.299 26.4605 291.808C26.1832 291.317 25.8205 290.955 25.3725 290.72C24.9245 290.475 24.4392 290.352 23.9165 290.352C23.3832 290.352 22.8925 290.475 22.4445 290.72C22.0072 290.955 21.6552 291.317 21.3885 291.808C21.1218 292.299 20.9885 292.896 20.9885 293.6C20.9885 294.315 21.1165 294.917 21.3725 295.408C21.6392 295.899 21.9912 296.267 22.4285 296.512C22.8658 296.747 23.3458 296.864 23.8685 296.864ZM29.7349 293.6C29.7349 292.693 29.9162 291.904 30.2789 291.232C30.6415 290.549 31.1429 290.021 31.7829 289.648C32.4335 289.275 33.1749 289.088 34.0069 289.088C35.0842 289.088 35.9695 289.349 36.6629 289.872C37.3669 290.395 37.8309 291.12 38.0549 292.048H36.4869C36.3375 291.515 36.0442 291.093 35.6069 290.784C35.1802 290.475 34.6469 290.32 34.0069 290.32C33.1749 290.32 32.5029 290.608 31.9909 291.184C31.4789 291.749 31.2229 292.555 31.2229 293.6C31.2229 294.656 31.4789 295.472 31.9909 296.048C32.5029 296.624 33.1749 296.912 34.0069 296.912C34.6469 296.912 35.1802 296.763 35.6069 296.464C36.0335 296.165 36.3269 295.739 36.4869 295.184H38.0549C37.8202 296.08 37.3509 296.8 36.6469 297.344C35.9429 297.877 35.0629 298.144 34.0069 298.144C33.1749 298.144 32.4335 297.957 31.7829 297.584C31.1429 297.211 30.6415 296.683 30.2789 296C29.9162 295.317 29.7349 294.517 29.7349 293.6ZM47.9976 293.28C47.9976 293.557 47.9816 293.851 47.9496 294.16H40.9416C40.995 295.024 41.2883 295.701 41.8216 296.192C42.3656 296.672 43.0216 296.912 43.7896 296.912C44.419 296.912 44.9416 296.768 45.3576 296.48C45.7843 296.181 46.083 295.787 46.2536 295.296H47.8216C47.587 296.139 47.1176 296.827 46.4136 297.36C45.7096 297.883 44.835 298.144 43.7896 298.144C42.9576 298.144 42.211 297.957 41.5496 297.584C40.899 297.211 40.387 296.683 40.0136 296C39.6403 295.307 39.4536 294.507 39.4536 293.6C39.4536 292.693 39.635 291.899 39.9976 291.216C40.3603 290.533 40.867 290.011 41.5176 289.648C42.179 289.275 42.9363 289.088 43.7896 289.088C44.6216 289.088 45.3576 289.269 45.9976 289.632C46.6376 289.995 47.1283 290.496 47.4696 291.136C47.8216 291.765 47.9976 292.48 47.9976 293.28ZM46.4936 292.976C46.4936 292.421 46.371 291.947 46.1256 291.552C45.8803 291.147 45.5443 290.843 45.1176 290.64C44.7016 290.427 44.2376 290.32 43.7256 290.32C42.9896 290.32 42.3603 290.555 41.8376 291.024C41.3256 291.493 41.0323 292.144 40.9576 292.976H46.4936ZM51.3755 290.656C51.6315 290.155 51.9942 289.765 52.4635 289.488C52.9435 289.211 53.5248 289.072 54.2075 289.072V290.576H53.8235C52.1915 290.576 51.3755 291.461 51.3755 293.232V298H49.9195V289.232H51.3755V290.656ZM56.6403 287.808C56.3629 287.808 56.1283 287.712 55.9363 287.52C55.7443 287.328 55.6483 287.093 55.6483 286.816C55.6483 286.539 55.7443 286.304 55.9363 286.112C56.1283 285.92 56.3629 285.824 56.6403 285.824C56.9069 285.824 57.1309 285.92 57.3123 286.112C57.5043 286.304 57.6003 286.539 57.6003 286.816C57.6003 287.093 57.5043 287.328 57.3123 287.52C57.1309 287.712 56.9069 287.808 56.6403 287.808ZM57.3443 289.232V298H55.8883V289.232H57.3443ZM67.8258 293.28C67.8258 293.557 67.8098 293.851 67.7778 294.16H60.7698C60.8231 295.024 61.1164 295.701 61.6498 296.192C62.1938 296.672 62.8498 296.912 63.6178 296.912C64.2471 296.912 64.7698 296.768 65.1858 296.48C65.6124 296.181 65.9111 295.787 66.0818 295.296H67.6498C67.4151 296.139 66.9458 296.827 66.2418 297.36C65.5378 297.883 64.6631 298.144 63.6178 298.144C62.7858 298.144 62.0391 297.957 61.3778 297.584C60.7271 297.211 60.2151 296.683 59.8418 296C59.4684 295.307 59.2818 294.507 59.2818 293.6C59.2818 292.693 59.4631 291.899 59.8258 291.216C60.1884 290.533 60.6951 290.011 61.3458 289.648C62.0071 289.275 62.7644 289.088 63.6178 289.088C64.4498 289.088 65.1858 289.269 65.8258 289.632C66.4658 289.995 66.9564 290.496 67.2978 291.136C67.6498 291.765 67.8258 292.48 67.8258 293.28ZM66.3218 292.976C66.3218 292.421 66.1991 291.947 65.9538 291.552C65.7084 291.147 65.3724 290.843 64.9458 290.64C64.5298 290.427 64.0658 290.32 63.5538 290.32C62.8178 290.32 62.1884 290.555 61.6658 291.024C61.1538 291.493 60.8604 292.144 60.7858 292.976H66.3218ZM72.8516 298.144C72.1796 298.144 71.577 298.032 71.0436 297.808C70.5103 297.573 70.089 297.253 69.7796 296.848C69.4703 296.432 69.2996 295.957 69.2676 295.424H70.7716C70.8143 295.861 71.017 296.219 71.3796 296.496C71.753 296.773 72.2383 296.912 72.8356 296.912C73.3903 296.912 73.8276 296.789 74.1476 296.544C74.4676 296.299 74.6276 295.989 74.6276 295.616C74.6276 295.232 74.457 294.949 74.1156 294.768C73.7743 294.576 73.2463 294.389 72.5316 294.208C71.881 294.037 71.3476 293.867 70.9316 293.696C70.5263 293.515 70.1743 293.253 69.8756 292.912C69.5876 292.56 69.4436 292.101 69.4436 291.536C69.4436 291.088 69.577 290.677 69.8436 290.304C70.1103 289.931 70.489 289.637 70.9796 289.424C71.4703 289.2 72.0303 289.088 72.6596 289.088C73.6303 289.088 74.4143 289.333 75.0116 289.824C75.609 290.315 75.929 290.987 75.9716 291.84H74.5156C74.4836 291.381 74.297 291.013 73.9556 290.736C73.625 290.459 73.177 290.32 72.6116 290.32C72.089 290.32 71.673 290.432 71.3636 290.656C71.0543 290.88 70.8996 291.173 70.8996 291.536C70.8996 291.824 70.9903 292.064 71.1716 292.256C71.3636 292.437 71.5983 292.587 71.8756 292.704C72.1636 292.811 72.5583 292.933 73.0596 293.072C73.689 293.243 74.201 293.413 74.5956 293.584C74.9903 293.744 75.3263 293.989 75.6036 294.32C75.8916 294.651 76.041 295.083 76.0516 295.616C76.0516 296.096 75.9183 296.528 75.6516 296.912C75.385 297.296 75.0063 297.6 74.5156 297.824C74.0356 298.037 73.481 298.144 72.8516 298.144ZM90.9326 298L89.4766 296.528C88.9326 297.093 88.3513 297.515 87.7326 297.792C87.114 298.059 86.4153 298.192 85.6366 298.192C84.8686 298.192 84.186 298.053 83.5886 297.776C83.002 297.499 82.5433 297.104 82.2126 296.592C81.8926 296.08 81.7326 295.483 81.7326 294.8C81.7326 294.021 81.9513 293.339 82.3886 292.752C82.8366 292.155 83.4926 291.685 84.3566 291.344C84.0153 290.939 83.77 290.565 83.6206 290.224C83.4713 289.883 83.3966 289.509 83.3966 289.104C83.3966 288.635 83.514 288.213 83.7486 287.84C83.994 287.456 84.3406 287.157 84.7886 286.944C85.2366 286.731 85.754 286.624 86.3406 286.624C86.9166 286.624 87.418 286.736 87.8446 286.96C88.2713 287.184 88.5913 287.499 88.8046 287.904C89.018 288.299 89.114 288.741 89.0926 289.232H87.6366C87.6473 288.795 87.5246 288.453 87.2686 288.208C87.0126 287.952 86.682 287.824 86.2766 287.824C85.85 287.824 85.5033 287.947 85.2366 288.192C84.9806 288.427 84.8526 288.731 84.8526 289.104C84.8526 289.424 84.938 289.733 85.1086 290.032C85.29 290.331 85.5886 290.699 86.0046 291.136L89.3326 294.48L89.6206 294.032L90.7086 292.208H92.2766L90.9646 294.48C90.7833 294.8 90.57 295.136 90.3246 295.488L92.8366 298H90.9326ZM85.6366 296.944C86.2126 296.944 86.73 296.832 87.1886 296.608C87.658 296.384 88.1006 296.037 88.5166 295.568L85.2366 292.272C83.8713 292.795 83.1886 293.621 83.1886 294.752C83.1886 295.381 83.4126 295.904 83.8606 296.32C84.3193 296.736 84.9113 296.944 85.6366 296.944ZM105.922 290.112C105.922 291.04 105.602 291.813 104.962 292.432C104.333 293.04 103.368 293.344 102.066 293.344H99.9224V298H98.4664V286.848H102.066C103.325 286.848 104.28 287.152 104.93 287.76C105.592 288.368 105.922 289.152 105.922 290.112ZM102.066 292.144C102.877 292.144 103.474 291.968 103.858 291.616C104.242 291.264 104.434 290.763 104.434 290.112C104.434 288.736 103.645 288.048 102.066 288.048H99.9224V292.144H102.066ZM115.732 293.28C115.732 293.557 115.716 293.851 115.684 294.16H108.676C108.729 295.024 109.023 295.701 109.556 296.192C110.1 296.672 110.756 296.912 111.524 296.912C112.153 296.912 112.676 296.768 113.092 296.48C113.519 296.181 113.817 295.787 113.988 295.296H115.556C115.321 296.139 114.852 296.827 114.148 297.36C113.444 297.883 112.569 298.144 111.524 298.144C110.692 298.144 109.945 297.957 109.284 297.584C108.633 297.211 108.121 296.683 107.748 296C107.375 295.307 107.188 294.507 107.188 293.6C107.188 292.693 107.369 291.899 107.732 291.216C108.095 290.533 108.601 290.011 109.252 289.648C109.913 289.275 110.671 289.088 111.524 289.088C112.356 289.088 113.092 289.269 113.732 289.632C114.372 289.995 114.863 290.496 115.204 291.136C115.556 291.765 115.732 292.48 115.732 293.28ZM114.228 292.976C114.228 292.421 114.105 291.947 113.86 291.552C113.615 291.147 113.279 290.843 112.852 290.64C112.436 290.427 111.972 290.32 111.46 290.32C110.724 290.32 110.095 290.555 109.572 291.024C109.06 291.493 108.767 292.144 108.692 292.976H114.228ZM119.43 290.432V295.6C119.43 296.027 119.521 296.331 119.702 296.512C119.883 296.683 120.198 296.768 120.646 296.768H121.718V298H120.406C119.595 298 118.987 297.813 118.582 297.44C118.177 297.067 117.974 296.453 117.974 295.6V290.432H116.838V289.232H117.974V287.024H119.43V289.232H121.718V290.432H119.43ZM126.586 298.144C125.914 298.144 125.311 298.032 124.778 297.808C124.245 297.573 123.823 297.253 123.514 296.848C123.205 296.432 123.034 295.957 123.002 295.424H124.506C124.549 295.861 124.751 296.219 125.114 296.496C125.487 296.773 125.973 296.912 126.57 296.912C127.125 296.912 127.562 296.789 127.882 296.544C128.202 296.299 128.362 295.989 128.362 295.616C128.362 295.232 128.191 294.949 127.85 294.768C127.509 294.576 126.981 294.389 126.266 294.208C125.615 294.037 125.082 293.867 124.666 293.696C124.261 293.515 123.909 293.253 123.61 292.912C123.322 292.56 123.178 292.101 123.178 291.536C123.178 291.088 123.311 290.677 123.578 290.304C123.845 289.931 124.223 289.637 124.714 289.424C125.205 289.2 125.765 289.088 126.394 289.088C127.365 289.088 128.149 289.333 128.746 289.824C129.343 290.315 129.663 290.987 129.706 291.84H128.25C128.218 291.381 128.031 291.013 127.69 290.736C127.359 290.459 126.911 290.32 126.346 290.32C125.823 290.32 125.407 290.432 125.098 290.656C124.789 290.88 124.634 291.173 124.634 291.536C124.634 291.824 124.725 292.064 124.906 292.256C125.098 292.437 125.333 292.587 125.61 292.704C125.898 292.811 126.293 292.933 126.794 293.072C127.423 293.243 127.935 293.413 128.33 293.584C128.725 293.744 129.061 293.989 129.338 294.32C129.626 294.651 129.775 295.083 129.786 295.616C129.786 296.096 129.653 296.528 129.386 296.912C129.119 297.296 128.741 297.6 128.25 297.824C127.77 298.037 127.215 298.144 126.586 298.144Z" fill="black"/>
<path d="M9.92556 326.848V338H8.46956V332.944H2.78956V338H1.33356V326.848H2.78956V331.744H8.46956V326.848H9.92556ZM20.4117 333.28C20.4117 333.557 20.3957 333.851 20.3637 334.16H13.3557C13.409 335.024 13.7024 335.701 14.2357 336.192C14.7797 336.672 15.4357 336.912 16.2037 336.912C16.833 336.912 17.3557 336.768 17.7717 336.48C18.1984 336.181 18.497 335.787 18.6677 335.296H20.2357C20.001 336.139 19.5317 336.827 18.8277 337.36C18.1237 337.883 17.249 338.144 16.2037 338.144C15.3717 338.144 14.625 337.957 13.9637 337.584C13.313 337.211 12.801 336.683 12.4277 336C12.0544 335.307 11.8677 334.507 11.8677 333.6C11.8677 332.693 12.049 331.899 12.4117 331.216C12.7744 330.533 13.281 330.011 13.9317 329.648C14.593 329.275 15.3504 329.088 16.2037 329.088C17.0357 329.088 17.7717 329.269 18.4117 329.632C19.0517 329.995 19.5424 330.496 19.8837 331.136C20.2357 331.765 20.4117 332.48 20.4117 333.28ZM18.9077 332.976C18.9077 332.421 18.785 331.947 18.5397 331.552C18.2944 331.147 17.9584 330.843 17.5317 330.64C17.1157 330.427 16.6517 330.32 16.1397 330.32C15.4037 330.32 14.7744 330.555 14.2517 331.024C13.7397 331.493 13.4464 332.144 13.3717 332.976H18.9077ZM21.7896 333.584C21.7896 332.688 21.9709 331.904 22.3336 331.232C22.6962 330.549 23.1922 330.021 23.8216 329.648C24.4616 329.275 25.1709 329.088 25.9496 329.088C26.7176 329.088 27.3842 329.253 27.9496 329.584C28.5149 329.915 28.9362 330.331 29.2136 330.832V329.232H30.6856V338H29.2136V336.368C28.9256 336.88 28.4936 337.307 27.9176 337.648C27.3522 337.979 26.6909 338.144 25.9336 338.144C25.1549 338.144 24.4509 337.952 23.8216 337.568C23.1922 337.184 22.6962 336.645 22.3336 335.952C21.9709 335.259 21.7896 334.469 21.7896 333.584ZM29.2136 333.6C29.2136 332.939 29.0802 332.363 28.8136 331.872C28.5469 331.381 28.1842 331.008 27.7256 330.752C27.2776 330.485 26.7816 330.352 26.2376 330.352C25.6936 330.352 25.1976 330.48 24.7496 330.736C24.3016 330.992 23.9442 331.365 23.6776 331.856C23.4109 332.347 23.2776 332.923 23.2776 333.584C23.2776 334.256 23.4109 334.843 23.6776 335.344C23.9442 335.835 24.3016 336.213 24.7496 336.48C25.1976 336.736 25.6936 336.864 26.2376 336.864C26.7816 336.864 27.2776 336.736 27.7256 336.48C28.1842 336.213 28.5469 335.835 28.8136 335.344C29.0802 334.843 29.2136 334.261 29.2136 333.6ZM34.6021 326.16V338H33.1461V326.16H34.6021ZM38.8596 330.432V335.6C38.8596 336.027 38.9502 336.331 39.1316 336.512C39.3129 336.683 39.6276 336.768 40.0756 336.768H41.1476V338H39.8356C39.0249 338 38.4169 337.813 38.0116 337.44C37.6062 337.067 37.4036 336.453 37.4036 335.6V330.432H36.2676V329.232H37.4036V327.024H38.8596V329.232H41.1476V330.432H38.8596ZM47.2637 329.072C47.925 329.072 48.5224 329.216 49.0557 329.504C49.589 329.781 50.005 330.203 50.3037 330.768C50.613 331.333 50.7677 332.021 50.7677 332.832V338H49.3277V333.04C49.3277 332.165 49.109 331.499 48.6717 331.04C48.2344 330.571 47.637 330.336 46.8797 330.336C46.1117 330.336 45.4984 330.576 45.0397 331.056C44.5917 331.536 44.3677 332.235 44.3677 333.152V338H42.9117V326.16H44.3677V330.48C44.6557 330.032 45.0504 329.685 45.5517 329.44C46.0637 329.195 46.6344 329.072 47.2637 329.072ZM65.9717 338L64.5157 336.528C63.9717 337.093 63.3904 337.515 62.7717 337.792C62.153 338.059 61.4544 338.192 60.6757 338.192C59.9077 338.192 59.225 338.053 58.6277 337.776C58.041 337.499 57.5824 337.104 57.2517 336.592C56.9317 336.08 56.7717 335.483 56.7717 334.8C56.7717 334.021 56.9904 333.339 57.4277 332.752C57.8757 332.155 58.5317 331.685 59.3957 331.344C59.0544 330.939 58.809 330.565 58.6597 330.224C58.5104 329.883 58.4357 329.509 58.4357 329.104C58.4357 328.635 58.553 328.213 58.7877 327.84C59.033 327.456 59.3797 327.157 59.8277 326.944C60.2757 326.731 60.793 326.624 61.3797 326.624C61.9557 326.624 62.457 326.736 62.8837 326.96C63.3104 327.184 63.6304 327.499 63.8437 327.904C64.057 328.299 64.153 328.741 64.1317 329.232H62.6757C62.6864 328.795 62.5637 328.453 62.3077 328.208C62.0517 327.952 61.721 327.824 61.3157 327.824C60.889 327.824 60.5424 327.947 60.2757 328.192C60.0197 328.427 59.8917 328.731 59.8917 329.104C59.8917 329.424 59.977 329.733 60.1477 330.032C60.329 330.331 60.6277 330.699 61.0437 331.136L64.3717 334.48L64.6597 334.032L65.7477 332.208H67.3157L66.0037 334.48C65.8224 334.8 65.609 335.136 65.3637 335.488L67.8757 338H65.9717ZM60.6757 336.944C61.2517 336.944 61.769 336.832 62.2277 336.608C62.697 336.384 63.1397 336.037 63.5557 335.568L60.2757 332.272C58.9104 332.795 58.2277 333.621 58.2277 334.752C58.2277 335.381 58.4517 335.904 58.8997 336.32C59.3584 336.736 59.9504 336.944 60.6757 336.944ZM79.0894 332.256C79.4948 332.32 79.8628 332.485 80.1934 332.752C80.5348 333.019 80.8014 333.349 80.9934 333.744C81.1961 334.139 81.2974 334.56 81.2974 335.008C81.2974 335.573 81.1534 336.085 80.8654 336.544C80.5774 336.992 80.1561 337.349 79.6014 337.616C79.0574 337.872 78.4121 338 77.6654 338H73.5054V326.848H77.5054C78.2628 326.848 78.9081 326.976 79.4414 327.232C79.9748 327.477 80.3748 327.813 80.6414 328.24C80.9081 328.667 81.0414 329.147 81.0414 329.68C81.0414 330.341 80.8601 330.891 80.4974 331.328C80.1454 331.755 79.6761 332.064 79.0894 332.256ZM74.9614 331.664H77.4094C78.0921 331.664 78.6201 331.504 78.9934 331.184C79.3668 330.864 79.5534 330.421 79.5534 329.856C79.5534 329.291 79.3668 328.848 78.9934 328.528C78.6201 328.208 78.0814 328.048 77.3774 328.048H74.9614V331.664ZM77.5374 336.8C78.2628 336.8 78.8281 336.629 79.2334 336.288C79.6388 335.947 79.8414 335.472 79.8414 334.864C79.8414 334.245 79.6281 333.76 79.2014 333.408C78.7748 333.045 78.2041 332.864 77.4894 332.864H74.9614V336.8H77.5374ZM91.3179 333.28C91.3179 333.557 91.3019 333.851 91.2699 334.16H84.2619C84.3153 335.024 84.6086 335.701 85.1419 336.192C85.6859 336.672 86.3419 336.912 87.1099 336.912C87.7393 336.912 88.2619 336.768 88.6779 336.48C89.1046 336.181 89.4033 335.787 89.5739 335.296H91.1419C90.9073 336.139 90.4379 336.827 89.7339 337.36C89.0299 337.883 88.1553 338.144 87.1099 338.144C86.2779 338.144 85.5313 337.957 84.8699 337.584C84.2193 337.211 83.7073 336.683 83.3339 336C82.9606 335.307 82.7739 334.507 82.7739 333.6C82.7739 332.693 82.9553 331.899 83.3179 331.216C83.6806 330.533 84.1873 330.011 84.8379 329.648C85.4993 329.275 86.2566 329.088 87.1099 329.088C87.9419 329.088 88.6779 329.269 89.3179 329.632C89.9579 329.995 90.4486 330.496 90.7899 331.136C91.1419 331.765 91.3179 332.48 91.3179 333.28ZM89.8139 332.976C89.8139 332.421 89.6913 331.947 89.4459 331.552C89.2006 331.147 88.8646 330.843 88.4379 330.64C88.0219 330.427 87.5579 330.32 87.0459 330.32C86.3099 330.32 85.6806 330.555 85.1579 331.024C84.6459 331.493 84.3526 332.144 84.2779 332.976H89.8139ZM92.6958 333.584C92.6958 332.688 92.8771 331.904 93.2398 331.232C93.6025 330.549 94.0985 330.021 94.7278 329.648C95.3678 329.275 96.0771 329.088 96.8558 329.088C97.6238 329.088 98.2905 329.253 98.8558 329.584C99.4211 329.915 99.8425 330.331 100.12 330.832V329.232H101.592V338H100.12V336.368C99.8318 336.88 99.3998 337.307 98.8238 337.648C98.2585 337.979 97.5971 338.144 96.8398 338.144C96.0611 338.144 95.3571 337.952 94.7278 337.568C94.0985 337.184 93.6025 336.645 93.2398 335.952C92.8771 335.259 92.6958 334.469 92.6958 333.584ZM100.12 333.6C100.12 332.939 99.9865 332.363 99.7198 331.872C99.4531 331.381 99.0905 331.008 98.6318 330.752C98.1838 330.485 97.6878 330.352 97.1438 330.352C96.5998 330.352 96.1038 330.48 95.6558 330.736C95.2078 330.992 94.8505 331.365 94.5838 331.856C94.3171 332.347 94.1838 332.923 94.1838 333.584C94.1838 334.256 94.3171 334.843 94.5838 335.344C94.8505 335.835 95.2078 336.213 95.6558 336.48C96.1038 336.736 96.5998 336.864 97.1438 336.864C97.6878 336.864 98.1838 336.736 98.6318 336.48C99.0905 336.213 99.4531 335.835 99.7198 335.344C99.9865 334.843 100.12 334.261 100.12 333.6ZM111.828 329.232V338H110.372V336.704C110.095 337.152 109.706 337.504 109.204 337.76C108.714 338.005 108.17 338.128 107.572 338.128C106.89 338.128 106.276 337.989 105.732 337.712C105.188 337.424 104.756 336.997 104.436 336.432C104.127 335.867 103.972 335.179 103.972 334.368V329.232H105.412V334.176C105.412 335.04 105.631 335.707 106.068 336.176C106.506 336.635 107.103 336.864 107.86 336.864C108.639 336.864 109.252 336.624 109.7 336.144C110.148 335.664 110.372 334.965 110.372 334.048V329.232H111.828ZM116.063 330.432V335.6C116.063 336.027 116.153 336.331 116.335 336.512C116.516 336.683 116.831 336.768 117.279 336.768H118.351V338H117.039C116.228 338 115.62 337.813 115.215 337.44C114.809 337.067 114.607 336.453 114.607 335.6V330.432H113.471V329.232H114.607V327.024H116.063V329.232H118.351V330.432H116.063ZM127.667 329.232L122.387 342.128H120.883L122.611 337.904L119.075 329.232H120.691L123.443 336.336L126.163 329.232H127.667Z" fill="black"/>
</svg>
