<svg width="1170" height="38" viewBox="0 0 1170 38" fill="none" xmlns="http://www.w3.org/2000/svg">
<path d="M1.51705 28V10.5455H13.2784V13.5881H5.20739V17.7472H12.6733V20.7898H5.20739V24.9574H13.3125V28H1.51705ZM19.8983 14.9091L22.3017 19.4858L24.7647 14.9091H28.4892L24.6966 21.4545L28.5914 28H24.8841L22.3017 23.4744L19.7619 28H16.0119L19.8983 21.4545L16.1483 14.9091H19.8983ZM36.8114 28.2557C35.4705 28.2557 34.3171 27.9716 33.3512 27.4034C32.391 26.8295 31.6524 26.0341 31.1353 25.017C30.6239 24 30.3683 22.8295 30.3683 21.5057C30.3683 20.1648 30.6268 18.9886 31.1438 17.9773C31.6666 16.9602 32.408 16.1676 33.3683 15.5994C34.3285 15.0256 35.4705 14.7386 36.7944 14.7386C37.9364 14.7386 38.9364 14.946 39.7944 15.3608C40.6524 15.7756 41.3313 16.358 41.8313 17.108C42.3313 17.858 42.6069 18.7386 42.658 19.75H39.2319C39.1353 19.0966 38.8796 18.571 38.4649 18.1733C38.0558 17.7699 37.5188 17.5682 36.8541 17.5682C36.2916 17.5682 35.8001 17.7216 35.3796 18.0284C34.9649 18.3295 34.641 18.7699 34.408 19.3494C34.1751 19.929 34.0586 20.6307 34.0586 21.4545C34.0586 22.2898 34.1722 23 34.3995 23.5852C34.6325 24.1705 34.9592 24.6165 35.3796 24.9233C35.8001 25.2301 36.2916 25.3835 36.8541 25.3835C37.2688 25.3835 37.641 25.2983 37.9705 25.1278C38.3058 24.9574 38.5813 24.7102 38.7972 24.3864C39.0188 24.0568 39.1637 23.6619 39.2319 23.2017H42.658C42.6012 24.2017 42.3285 25.0824 41.8399 25.8438C41.3569 26.5994 40.6893 27.1903 39.837 27.6165C38.9847 28.0426 37.9762 28.2557 36.8114 28.2557ZM49.3333 10.5455V28H45.7026V10.5455H49.3333ZM61.3566 22.4261V14.9091H64.9872V28H61.5015V25.6222H61.3651C61.0696 26.3892 60.5782 27.0057 59.8907 27.4716C59.2088 27.9375 58.3764 28.1705 57.3935 28.1705C56.5185 28.1705 55.7486 27.9716 55.0838 27.5739C54.4191 27.1761 53.8992 26.6108 53.5242 25.8778C53.1549 25.1449 52.9674 24.267 52.9617 23.2443V14.9091H56.5924V22.5966C56.598 23.3693 56.8054 23.9801 57.2145 24.429C57.6236 24.8778 58.1719 25.1023 58.8594 25.1023C59.2969 25.1023 59.706 25.0028 60.0867 24.804C60.4674 24.5994 60.7742 24.2983 61.0071 23.9006C61.2458 23.5028 61.3622 23.0114 61.3566 22.4261ZM79.5034 18.642L76.1795 18.8466C76.1227 18.5625 76.0006 18.3068 75.8131 18.0795C75.6256 17.8466 75.3784 17.6619 75.0716 17.5256C74.7705 17.3835 74.4097 17.3125 73.9892 17.3125C73.4267 17.3125 72.9523 17.4318 72.5659 17.6705C72.1795 17.9034 71.9864 18.2159 71.9864 18.608C71.9864 18.9205 72.1114 19.1847 72.3614 19.4006C72.6114 19.6165 73.0403 19.7898 73.6483 19.9205L76.0176 20.3977C77.2903 20.6591 78.2392 21.0795 78.8642 21.6591C79.4892 22.2386 79.8017 23 79.8017 23.9432C79.8017 24.8011 79.5489 25.554 79.0432 26.2017C78.5432 26.8494 77.8557 27.3551 76.9807 27.7188C76.1114 28.0767 75.1085 28.2557 73.9722 28.2557C72.2392 28.2557 70.8585 27.8949 69.8301 27.1733C68.8074 26.446 68.208 25.4574 68.0318 24.2074L71.6028 24.0199C71.7108 24.5483 71.9722 24.9517 72.3869 25.2301C72.8017 25.5028 73.333 25.6392 73.9807 25.6392C74.617 25.6392 75.1284 25.517 75.5148 25.2727C75.9068 25.0227 76.1057 24.7017 76.1114 24.3097C76.1057 23.9801 75.9665 23.7102 75.6937 23.5C75.421 23.2841 75.0006 23.1193 74.4324 23.0057L72.1653 22.554C70.8869 22.2983 69.9352 21.8551 69.3102 21.2244C68.6909 20.5937 68.3812 19.7898 68.3812 18.8125C68.3812 17.9716 68.6085 17.2472 69.0631 16.6392C69.5233 16.0312 70.1682 15.5625 70.9977 15.233C71.833 14.9034 72.8102 14.7386 73.9295 14.7386C75.583 14.7386 76.8841 15.0881 77.833 15.7869C78.7875 16.4858 79.3443 17.4375 79.5034 18.642ZM82.8079 28V14.9091H86.4386V28H82.8079ZM84.6318 13.2216C84.092 13.2216 83.6289 13.0426 83.2426 12.6847C82.8619 12.321 82.6716 11.8864 82.6716 11.3807C82.6716 10.8807 82.8619 10.4517 83.2426 10.0938C83.6289 9.73011 84.092 9.54829 84.6318 9.54829C85.1716 9.54829 85.6318 9.73011 86.0125 10.0938C86.3988 10.4517 86.592 10.8807 86.592 11.3807C86.592 11.8864 86.3988 12.321 86.0125 12.6847C85.6318 13.0426 85.1716 13.2216 84.6318 13.2216ZM102.272 14.9091L97.6948 28H93.6039L89.0272 14.9091H92.8624L95.5812 24.2756H95.7176L98.4278 14.9091H102.272ZM110.394 28.2557C109.047 28.2557 107.888 27.983 106.916 27.4375C105.95 26.8864 105.206 26.108 104.683 25.1023C104.161 24.0909 103.899 22.8949 103.899 21.5142C103.899 20.1676 104.161 18.9858 104.683 17.9688C105.206 16.9517 105.942 16.1591 106.891 15.5909C107.845 15.0227 108.965 14.7386 110.249 14.7386C111.112 14.7386 111.916 14.8778 112.661 15.1562C113.411 15.429 114.064 15.8409 114.621 16.392C115.183 16.9432 115.621 17.6364 115.933 18.4716C116.246 19.3011 116.402 20.2727 116.402 21.3864V22.3835H105.348V20.1335H112.984C112.984 19.6108 112.871 19.1477 112.644 18.7443C112.416 18.3409 112.101 18.0256 111.698 17.7983C111.3 17.5653 110.837 17.4489 110.308 17.4489C109.757 17.4489 109.269 17.5767 108.842 17.8324C108.422 18.0824 108.092 18.4205 107.854 18.8466C107.615 19.267 107.493 19.7358 107.487 20.2528V22.392C107.487 23.0398 107.607 23.5994 107.845 24.071C108.09 24.5426 108.433 24.9062 108.876 25.1619C109.32 25.4176 109.845 25.5455 110.453 25.5455C110.857 25.5455 111.226 25.4886 111.561 25.375C111.896 25.2614 112.183 25.0909 112.422 24.8636C112.661 24.6364 112.842 24.358 112.967 24.0284L116.325 24.25C116.155 25.0568 115.805 25.7614 115.277 26.3636C114.754 26.9602 114.078 27.4261 113.249 27.7614C112.425 28.0909 111.473 28.2557 110.394 28.2557Z" fill="black"/>
<path d="M317.965 13.848V25H316.509V19.944H310.829V25H309.373V13.848H310.829V18.744H316.509V13.848H317.965ZM324.275 25.144C323.453 25.144 322.707 24.9573 322.035 24.584C321.373 24.2107 320.851 23.6827 320.467 23C320.093 22.3067 319.907 21.5067 319.907 20.6C319.907 19.704 320.099 18.9147 320.483 18.232C320.877 17.5387 321.411 17.0107 322.083 16.648C322.755 16.2747 323.507 16.088 324.339 16.088C325.171 16.088 325.923 16.2747 326.595 16.648C327.267 17.0107 327.795 17.5333 328.179 18.216C328.573 18.8987 328.771 19.6933 328.771 20.6C328.771 21.5067 328.568 22.3067 328.163 23C327.768 23.6827 327.229 24.2107 326.547 24.584C325.864 24.9573 325.107 25.144 324.275 25.144ZM324.275 23.864C324.797 23.864 325.288 23.7413 325.747 23.496C326.205 23.2507 326.573 22.8827 326.851 22.392C327.139 21.9013 327.283 21.304 327.283 20.6C327.283 19.896 327.144 19.2987 326.867 18.808C326.589 18.3173 326.227 17.9547 325.779 17.72C325.331 17.4747 324.845 17.352 324.323 17.352C323.789 17.352 323.299 17.4747 322.851 17.72C322.413 17.9547 322.061 18.3173 321.795 18.808C321.528 19.2987 321.395 19.896 321.395 20.6C321.395 21.3147 321.523 21.9173 321.779 22.408C322.045 22.8987 322.397 23.2667 322.835 23.512C323.272 23.7467 323.752 23.864 324.275 23.864ZM341.229 16.072C341.912 16.072 342.52 16.216 343.053 16.504C343.586 16.7813 344.008 17.2027 344.317 17.768C344.626 18.3333 344.781 19.0213 344.781 19.832V25H343.341V20.04C343.341 19.1653 343.122 18.4987 342.685 18.04C342.258 17.5707 341.677 17.336 340.941 17.336C340.184 17.336 339.581 17.5813 339.133 18.072C338.685 18.552 338.461 19.2507 338.461 20.168V25H337.021V20.04C337.021 19.1653 336.802 18.4987 336.365 18.04C335.938 17.5707 335.357 17.336 334.621 17.336C333.864 17.336 333.261 17.5813 332.813 18.072C332.365 18.552 332.141 19.2507 332.141 20.168V25H330.685V16.232H332.141V17.496C332.429 17.0373 332.813 16.6853 333.293 16.44C333.784 16.1947 334.322 16.072 334.909 16.072C335.645 16.072 336.296 16.2373 336.861 16.568C337.426 16.8987 337.848 17.384 338.125 18.024C338.37 17.4053 338.776 16.9253 339.341 16.584C339.906 16.2427 340.536 16.072 341.229 16.072ZM355.17 20.28C355.17 20.5573 355.154 20.8507 355.122 21.16H348.114C348.167 22.024 348.46 22.7013 348.994 23.192C349.538 23.672 350.194 23.912 350.962 23.912C351.591 23.912 352.114 23.768 352.53 23.48C352.956 23.1813 353.255 22.7867 353.426 22.296H354.994C354.759 23.1387 354.29 23.8267 353.586 24.36C352.882 24.8827 352.007 25.144 350.962 25.144C350.13 25.144 349.383 24.9573 348.722 24.584C348.071 24.2107 347.559 23.6827 347.186 23C346.812 22.3067 346.626 21.5067 346.626 20.6C346.626 19.6933 346.807 18.8987 347.17 18.216C347.532 17.5333 348.039 17.0107 348.69 16.648C349.351 16.2747 350.108 16.088 350.962 16.088C351.794 16.088 352.53 16.2693 353.17 16.632C353.81 16.9947 354.3 17.496 354.642 18.136C354.994 18.7653 355.17 19.48 355.17 20.28ZM353.666 19.976C353.666 19.4213 353.543 18.9467 353.298 18.552C353.052 18.1467 352.716 17.8427 352.29 17.64C351.874 17.4267 351.41 17.32 350.898 17.32C350.162 17.32 349.532 17.5547 349.01 18.024C348.498 18.4933 348.204 19.144 348.13 19.976H353.666Z" fill="black"/>
<g opacity="0.5">
<line x1="308" y1="30.5" x2="356" y2="30.5" stroke="black"/>
</g>
<path d="M405.18 19.416C405.18 18.328 405.426 17.352 405.916 16.488C406.407 15.6133 407.074 14.9307 407.916 14.44C408.77 13.9493 409.714 13.704 410.748 13.704C411.964 13.704 413.026 13.9973 413.932 14.584C414.839 15.1707 415.5 16.0027 415.916 17.08H414.172C413.863 16.408 413.415 15.8907 412.828 15.528C412.252 15.1653 411.559 14.984 410.748 14.984C409.97 14.984 409.271 15.1653 408.652 15.528C408.034 15.8907 407.548 16.408 407.196 17.08C406.844 17.7413 406.668 18.52 406.668 19.416C406.668 20.3013 406.844 21.08 407.196 21.752C407.548 22.4133 408.034 22.9253 408.652 23.288C409.271 23.6507 409.97 23.832 410.748 23.832C411.559 23.832 412.252 23.656 412.828 23.304C413.415 22.9413 413.863 22.424 414.172 21.752H415.916C415.5 22.8187 414.839 23.6453 413.932 24.232C413.026 24.808 411.964 25.096 410.748 25.096C409.714 25.096 408.77 24.856 407.916 24.376C407.074 23.8853 406.407 23.208 405.916 22.344C405.426 21.48 405.18 20.504 405.18 19.416ZM421.908 25.144C421.086 25.144 420.34 24.9573 419.668 24.584C419.006 24.2107 418.484 23.6827 418.1 23C417.726 22.3067 417.54 21.5067 417.54 20.6C417.54 19.704 417.732 18.9147 418.116 18.232C418.51 17.5387 419.044 17.0107 419.716 16.648C420.388 16.2747 421.14 16.088 421.972 16.088C422.804 16.088 423.556 16.2747 424.228 16.648C424.9 17.0107 425.428 17.5333 425.812 18.216C426.206 18.8987 426.404 19.6933 426.404 20.6C426.404 21.5067 426.201 22.3067 425.796 23C425.401 23.6827 424.862 24.2107 424.18 24.584C423.497 24.9573 422.74 25.144 421.908 25.144ZM421.908 23.864C422.43 23.864 422.921 23.7413 423.38 23.496C423.838 23.2507 424.206 22.8827 424.484 22.392C424.772 21.9013 424.916 21.304 424.916 20.6C424.916 19.896 424.777 19.2987 424.5 18.808C424.222 18.3173 423.86 17.9547 423.412 17.72C422.964 17.4747 422.478 17.352 421.956 17.352C421.422 17.352 420.932 17.4747 420.484 17.72C420.046 17.9547 419.694 18.3173 419.428 18.808C419.161 19.2987 419.028 19.896 419.028 20.6C419.028 21.3147 419.156 21.9173 419.412 22.408C419.678 22.8987 420.03 23.2667 420.468 23.512C420.905 23.7467 421.385 23.864 421.908 23.864ZM432.59 16.072C433.657 16.072 434.521 16.3973 435.182 17.048C435.843 17.688 436.174 18.616 436.174 19.832V25H434.734V20.04C434.734 19.1653 434.515 18.4987 434.078 18.04C433.641 17.5707 433.043 17.336 432.286 17.336C431.518 17.336 430.905 17.576 430.446 18.056C429.998 18.536 429.774 19.2347 429.774 20.152V25H428.318V16.232H429.774V17.48C430.062 17.032 430.451 16.6853 430.942 16.44C431.443 16.1947 431.993 16.072 432.59 16.072ZM440.328 17.432V22.6C440.328 23.0267 440.419 23.3307 440.6 23.512C440.782 23.6827 441.096 23.768 441.544 23.768H442.616V25H441.304C440.494 25 439.886 24.8133 439.48 24.44C439.075 24.0667 438.872 23.4533 438.872 22.6V17.432H437.736V16.232H438.872V14.024H440.328V16.232H442.616V17.432H440.328ZM443.836 20.584C443.836 19.688 444.018 18.904 444.38 18.232C444.743 17.5493 445.239 17.0213 445.868 16.648C446.508 16.2747 447.218 16.088 447.996 16.088C448.764 16.088 449.431 16.2533 449.996 16.584C450.562 16.9147 450.983 17.3307 451.26 17.832V16.232H452.732V25H451.26V23.368C450.972 23.88 450.54 24.3067 449.964 24.648C449.399 24.9787 448.738 25.144 447.98 25.144C447.202 25.144 446.498 24.952 445.868 24.568C445.239 24.184 444.743 23.6453 444.38 22.952C444.018 22.2587 443.836 21.4693 443.836 20.584ZM451.26 20.6C451.26 19.9387 451.127 19.3627 450.86 18.872C450.594 18.3813 450.231 18.008 449.772 17.752C449.324 17.4853 448.828 17.352 448.284 17.352C447.74 17.352 447.244 17.48 446.796 17.736C446.348 17.992 445.991 18.3653 445.724 18.856C445.458 19.3467 445.324 19.9227 445.324 20.584C445.324 21.256 445.458 21.8427 445.724 22.344C445.991 22.8347 446.348 23.2133 446.796 23.48C447.244 23.736 447.74 23.864 448.284 23.864C448.828 23.864 449.324 23.736 449.772 23.48C450.231 23.2133 450.594 22.8347 450.86 22.344C451.127 21.8427 451.26 21.2613 451.26 20.6ZM454.649 20.6C454.649 19.6933 454.83 18.904 455.193 18.232C455.556 17.5493 456.057 17.0213 456.697 16.648C457.348 16.2747 458.089 16.088 458.921 16.088C459.998 16.088 460.884 16.3493 461.577 16.872C462.281 17.3947 462.745 18.12 462.969 19.048H461.401C461.252 18.5147 460.958 18.0933 460.521 17.784C460.094 17.4747 459.561 17.32 458.921 17.32C458.089 17.32 457.417 17.608 456.905 18.184C456.393 18.7493 456.137 19.5547 456.137 20.6C456.137 21.656 456.393 22.472 456.905 23.048C457.417 23.624 458.089 23.912 458.921 23.912C459.561 23.912 460.094 23.7627 460.521 23.464C460.948 23.1653 461.241 22.7387 461.401 22.184H462.969C462.734 23.08 462.265 23.8 461.561 24.344C460.857 24.8773 459.977 25.144 458.921 25.144C458.089 25.144 457.348 24.9573 456.697 24.584C456.057 24.2107 455.556 23.6827 455.193 23C454.83 22.3173 454.649 21.5173 454.649 20.6ZM466.688 17.432V22.6C466.688 23.0267 466.778 23.3307 466.96 23.512C467.141 23.6827 467.456 23.768 467.904 23.768H468.976V25H467.664C466.853 25 466.245 24.8133 465.84 24.44C465.434 24.0667 465.232 23.4533 465.232 22.6V17.432H464.096V16.232H465.232V14.024H466.688V16.232H468.976V17.432H466.688Z" fill="black"/>
<path d="M525.879 22.52H521.015L520.119 25H518.583L522.615 13.912H524.295L528.311 25H526.775L525.879 22.52ZM525.463 21.336L523.447 15.704L521.431 21.336H525.463ZM531.524 17.864C531.823 17.3413 532.26 16.9147 532.836 16.584C533.412 16.2533 534.068 16.088 534.804 16.088C535.593 16.088 536.303 16.2747 536.932 16.648C537.561 17.0213 538.057 17.5493 538.42 18.232C538.783 18.904 538.964 19.688 538.964 20.584C538.964 21.4693 538.783 22.2587 538.42 22.952C538.057 23.6453 537.556 24.184 536.916 24.568C536.287 24.952 535.583 25.144 534.804 25.144C534.047 25.144 533.38 24.9787 532.804 24.648C532.239 24.3173 531.812 23.896 531.524 23.384V25H530.068V13.16H531.524V17.864ZM537.476 20.584C537.476 19.9227 537.343 19.3467 537.076 18.856C536.809 18.3653 536.447 17.992 535.988 17.736C535.54 17.48 535.044 17.352 534.5 17.352C533.967 17.352 533.471 17.4853 533.012 17.752C532.564 18.008 532.201 18.3867 531.924 18.888C531.657 19.3787 531.524 19.9493 531.524 20.6C531.524 21.2613 531.657 21.8427 531.924 22.344C532.201 22.8347 532.564 23.2133 533.012 23.48C533.471 23.736 533.967 23.864 534.5 23.864C535.044 23.864 535.54 23.736 535.988 23.48C536.447 23.2133 536.809 22.8347 537.076 22.344C537.343 21.8427 537.476 21.256 537.476 20.584ZM544.704 25.144C543.883 25.144 543.136 24.9573 542.464 24.584C541.803 24.2107 541.28 23.6827 540.896 23C540.523 22.3067 540.336 21.5067 540.336 20.6C540.336 19.704 540.528 18.9147 540.912 18.232C541.307 17.5387 541.84 17.0107 542.512 16.648C543.184 16.2747 543.936 16.088 544.768 16.088C545.6 16.088 546.352 16.2747 547.024 16.648C547.696 17.0107 548.224 17.5333 548.608 18.216C549.003 18.8987 549.2 19.6933 549.2 20.6C549.2 21.5067 548.998 22.3067 548.592 23C548.198 23.6827 547.659 24.2107 546.976 24.584C546.294 24.9573 545.536 25.144 544.704 25.144ZM544.704 23.864C545.227 23.864 545.718 23.7413 546.176 23.496C546.635 23.2507 547.003 22.8827 547.28 22.392C547.568 21.9013 547.712 21.304 547.712 20.6C547.712 19.896 547.574 19.2987 547.296 18.808C547.019 18.3173 546.656 17.9547 546.208 17.72C545.76 17.4747 545.275 17.352 544.752 17.352C544.219 17.352 543.728 17.4747 543.28 17.72C542.843 17.9547 542.491 18.3173 542.224 18.808C541.958 19.2987 541.824 19.896 541.824 20.6C541.824 21.3147 541.952 21.9173 542.208 22.408C542.475 22.8987 542.827 23.2667 543.264 23.512C543.702 23.7467 544.182 23.864 544.704 23.864ZM558.891 16.232V25H557.435V23.704C557.157 24.152 556.768 24.504 556.267 24.76C555.776 25.0053 555.232 25.128 554.635 25.128C553.952 25.128 553.339 24.9893 552.795 24.712C552.251 24.424 551.819 23.9973 551.499 23.432C551.189 22.8667 551.035 22.1787 551.035 21.368V16.232H552.475V21.176C552.475 22.04 552.693 22.7067 553.131 23.176C553.568 23.6347 554.165 23.864 554.923 23.864C555.701 23.864 556.315 23.624 556.763 23.144C557.211 22.664 557.435 21.9653 557.435 21.048V16.232H558.891ZM563.125 17.432V22.6C563.125 23.0267 563.216 23.3307 563.397 23.512C563.579 23.6827 563.893 23.768 564.341 23.768H565.413V25H564.101C563.291 25 562.683 24.8133 562.277 24.44C561.872 24.0667 561.669 23.4533 561.669 22.6V17.432H560.533V16.232H561.669V14.024H563.125V16.232H565.413V17.432H563.125Z" fill="black"/>
<path d="M619.143 25.112C618.407 25.112 617.746 24.984 617.159 24.728C616.583 24.4613 616.13 24.0987 615.799 23.64C615.468 23.1707 615.298 22.632 615.287 22.024H616.839C616.892 22.5467 617.106 22.9893 617.479 23.352C617.863 23.704 618.418 23.88 619.143 23.88C619.836 23.88 620.38 23.7093 620.775 23.368C621.18 23.016 621.383 22.568 621.383 22.024C621.383 21.5973 621.266 21.2507 621.031 20.984C620.796 20.7173 620.503 20.5147 620.151 20.376C619.799 20.2373 619.324 20.088 618.727 19.928C617.991 19.736 617.399 19.544 616.951 19.352C616.514 19.16 616.135 18.8613 615.815 18.456C615.506 18.04 615.351 17.4853 615.351 16.792C615.351 16.184 615.506 15.6453 615.815 15.176C616.124 14.7067 616.556 14.344 617.111 14.088C617.676 13.832 618.322 13.704 619.047 13.704C620.092 13.704 620.946 13.9653 621.607 14.488C622.279 15.0107 622.658 15.704 622.743 16.568H621.143C621.09 16.1413 620.866 15.768 620.471 15.448C620.076 15.1173 619.554 14.952 618.903 14.952C618.295 14.952 617.799 15.112 617.415 15.432C617.031 15.7413 616.839 16.1787 616.839 16.744C616.839 17.1493 616.951 17.48 617.175 17.736C617.41 17.992 617.692 18.1893 618.023 18.328C618.364 18.456 618.839 18.6053 619.447 18.776C620.183 18.9787 620.775 19.1813 621.223 19.384C621.671 19.576 622.055 19.88 622.375 20.296C622.695 20.7013 622.855 21.256 622.855 21.96C622.855 22.504 622.711 23.016 622.423 23.496C622.135 23.976 621.708 24.3653 621.143 24.664C620.578 24.9627 619.911 25.112 619.143 25.112ZM625.75 14.808C625.472 14.808 625.238 14.712 625.046 14.52C624.854 14.328 624.758 14.0933 624.758 13.816C624.758 13.5387 624.854 13.304 625.046 13.112C625.238 12.92 625.472 12.824 625.75 12.824C626.016 12.824 626.24 12.92 626.422 13.112C626.614 13.304 626.71 13.5387 626.71 13.816C626.71 14.0933 626.614 14.328 626.422 14.52C626.24 14.712 626.016 14.808 625.75 14.808ZM626.454 16.232V25H624.998V16.232H626.454ZM632.551 16.088C633.308 16.088 633.97 16.2533 634.535 16.584C635.111 16.9147 635.538 17.3307 635.815 17.832V16.232H637.287V25.192C637.287 25.992 637.116 26.7013 636.775 27.32C636.434 27.9493 635.943 28.44 635.303 28.792C634.674 29.144 633.938 29.32 633.095 29.32C631.943 29.32 630.983 29.048 630.215 28.504C629.447 27.96 628.994 27.2187 628.855 26.28H630.295C630.455 26.8133 630.786 27.24 631.287 27.56C631.788 27.8907 632.391 28.056 633.095 28.056C633.895 28.056 634.546 27.8053 635.047 27.304C635.559 26.8027 635.815 26.0987 635.815 25.192V23.352C635.527 23.864 635.1 24.2907 634.535 24.632C633.97 24.9733 633.308 25.144 632.551 25.144C631.772 25.144 631.063 24.952 630.423 24.568C629.794 24.184 629.298 23.6453 628.935 22.952C628.572 22.2587 628.391 21.4693 628.391 20.584C628.391 19.688 628.572 18.904 628.935 18.232C629.298 17.5493 629.794 17.0213 630.423 16.648C631.063 16.2747 631.772 16.088 632.551 16.088ZM635.815 20.6C635.815 19.9387 635.682 19.3627 635.415 18.872C635.148 18.3813 634.786 18.008 634.327 17.752C633.879 17.4853 633.383 17.352 632.839 17.352C632.295 17.352 631.799 17.48 631.351 17.736C630.903 17.992 630.546 18.3653 630.279 18.856C630.012 19.3467 629.879 19.9227 629.879 20.584C629.879 21.256 630.012 21.8427 630.279 22.344C630.546 22.8347 630.903 23.2133 631.351 23.48C631.799 23.736 632.295 23.864 632.839 23.864C633.383 23.864 633.879 23.736 634.327 23.48C634.786 23.2133 635.148 22.8347 635.415 22.344C635.682 21.8427 635.815 21.2613 635.815 20.6ZM644.02 16.072C645.086 16.072 645.95 16.3973 646.612 17.048C647.273 17.688 647.604 18.616 647.604 19.832V25H646.164V20.04C646.164 19.1653 645.945 18.4987 645.508 18.04C645.07 17.5707 644.473 17.336 643.716 17.336C642.948 17.336 642.334 17.576 641.876 18.056C641.428 18.536 641.204 19.2347 641.204 20.152V25H639.748V16.232H641.204V17.48C641.492 17.032 641.881 16.6853 642.372 16.44C642.873 16.1947 643.422 16.072 644.02 16.072ZM655.672 13.848V20.904C655.672 21.896 655.912 22.632 656.392 23.112C656.882 23.592 657.56 23.832 658.424 23.832C659.277 23.832 659.944 23.592 660.424 23.112C660.914 22.632 661.16 21.896 661.16 20.904V13.848H662.616V20.888C662.616 21.816 662.429 22.6 662.056 23.24C661.682 23.8693 661.176 24.3387 660.536 24.648C659.906 24.9573 659.197 25.112 658.408 25.112C657.618 25.112 656.904 24.9573 656.264 24.648C655.634 24.3387 655.133 23.8693 654.76 23.24C654.397 22.6 654.216 21.816 654.216 20.888V13.848H655.672ZM666.501 17.848C666.789 17.3467 667.215 16.9307 667.781 16.6C668.357 16.2587 669.023 16.088 669.781 16.088C670.559 16.088 671.263 16.2747 671.892 16.648C672.532 17.0213 673.034 17.5493 673.397 18.232C673.759 18.904 673.941 19.688 673.941 20.584C673.941 21.4693 673.759 22.2587 673.397 22.952C673.034 23.6453 672.532 24.184 671.892 24.568C671.263 24.952 670.559 25.144 669.781 25.144C669.034 25.144 668.373 24.9787 667.797 24.648C667.231 24.3067 666.799 23.8853 666.501 23.384V29.16H665.045V16.232H666.501V17.848ZM672.453 20.584C672.453 19.9227 672.319 19.3467 672.053 18.856C671.786 18.3653 671.423 17.992 670.965 17.736C670.517 17.48 670.021 17.352 669.477 17.352C668.943 17.352 668.447 17.4853 667.989 17.752C667.541 18.008 667.178 18.3867 666.901 18.888C666.634 19.3787 666.501 19.9493 666.501 20.6C666.501 21.2613 666.634 21.8427 666.901 22.344C667.178 22.8347 667.541 23.2133 667.989 23.48C668.447 23.736 668.943 23.864 669.477 23.864C670.021 23.864 670.517 23.736 670.965 23.48C671.423 23.2133 671.786 22.8347 672.053 22.344C672.319 21.8427 672.453 21.256 672.453 20.584Z" fill="black"/>
<rect x="823" width="243" height="38" rx="4" fill="#F5F5F5"/>
<path opacity="0.5" d="M854.436 14.636L852.012 23H850.788L848.844 16.268L846.828 23L845.616 23.012L843.276 14.636H844.44L846.264 21.728L848.28 14.636H849.504L851.424 21.704L853.26 14.636H854.436ZM858.895 16.304C859.391 16.304 859.839 16.412 860.239 16.628C860.639 16.836 860.951 17.152 861.175 17.576C861.407 18 861.523 18.516 861.523 19.124V23H860.443V19.28C860.443 18.624 860.279 18.124 859.951 17.78C859.623 17.428 859.175 17.252 858.607 17.252C858.031 17.252 857.571 17.432 857.227 17.792C856.891 18.152 856.723 18.676 856.723 19.364V23H855.631V14.12H856.723V17.36C856.939 17.024 857.235 16.764 857.611 16.58C857.995 16.396 858.423 16.304 858.895 16.304ZM862.899 19.688C862.899 19.016 863.035 18.428 863.307 17.924C863.579 17.412 863.951 17.016 864.423 16.736C864.903 16.456 865.435 16.316 866.019 16.316C866.595 16.316 867.095 16.44 867.519 16.688C867.943 16.936 868.259 17.248 868.467 17.624V16.424H869.571V23H868.467V21.776C868.251 22.16 867.927 22.48 867.495 22.736C867.071 22.984 866.575 23.108 866.007 23.108C865.423 23.108 864.895 22.964 864.423 22.676C863.951 22.388 863.579 21.984 863.307 21.464C863.035 20.944 862.899 20.352 862.899 19.688ZM868.467 19.7C868.467 19.204 868.367 18.772 868.167 18.404C867.967 18.036 867.695 17.756 867.351 17.564C867.015 17.364 866.643 17.264 866.235 17.264C865.827 17.264 865.455 17.36 865.119 17.552C864.783 17.744 864.515 18.024 864.315 18.392C864.115 18.76 864.015 19.192 864.015 19.688C864.015 20.192 864.115 20.632 864.315 21.008C864.515 21.376 864.783 21.66 865.119 21.86C865.455 22.052 865.827 22.148 866.235 22.148C866.643 22.148 867.015 22.052 867.351 21.86C867.695 21.66 867.967 21.376 868.167 21.008C868.367 20.632 868.467 20.196 868.467 19.7ZM872.748 17.324V21.2C872.748 21.52 872.816 21.748 872.952 21.884C873.088 22.012 873.324 22.076 873.66 22.076H874.464V23H873.48C872.872 23 872.416 22.86 872.112 22.58C871.808 22.3 871.656 21.84 871.656 21.2V17.324H870.804V16.424H871.656V14.768H872.748V16.424H874.464V17.324H872.748ZM878.579 19.688C878.579 19.016 878.715 18.428 878.987 17.924C879.259 17.412 879.631 17.016 880.103 16.736C880.583 16.456 881.115 16.316 881.699 16.316C882.275 16.316 882.775 16.44 883.199 16.688C883.623 16.936 883.939 17.248 884.147 17.624V16.424H885.251V23H884.147V21.776C883.931 22.16 883.607 22.48 883.175 22.736C882.751 22.984 882.255 23.108 881.687 23.108C881.103 23.108 880.575 22.964 880.103 22.676C879.631 22.388 879.259 21.984 878.987 21.464C878.715 20.944 878.579 20.352 878.579 19.688ZM884.147 19.7C884.147 19.204 884.047 18.772 883.847 18.404C883.647 18.036 883.375 17.756 883.031 17.564C882.695 17.364 882.323 17.264 881.915 17.264C881.507 17.264 881.135 17.36 880.799 17.552C880.463 17.744 880.195 18.024 879.995 18.392C879.795 18.76 879.695 19.192 879.695 19.688C879.695 20.192 879.795 20.632 879.995 21.008C880.195 21.376 880.463 21.66 880.799 21.86C881.135 22.052 881.507 22.148 881.915 22.148C882.323 22.148 882.695 22.052 883.031 21.86C883.375 21.66 883.647 21.376 883.847 21.008C884.047 20.632 884.147 20.196 884.147 19.7ZM888.188 17.492C888.38 17.116 888.652 16.824 889.004 16.616C889.364 16.408 889.8 16.304 890.312 16.304V17.432H890.024C888.8 17.432 888.188 18.096 888.188 19.424V23H887.096V16.424H888.188V17.492ZM897.572 19.46C897.572 19.668 897.56 19.888 897.536 20.12H892.28C892.32 20.768 892.54 21.276 892.94 21.644C893.348 22.004 893.84 22.184 894.416 22.184C894.888 22.184 895.28 22.076 895.592 21.86C895.912 21.636 896.136 21.34 896.264 20.972H897.44C897.264 21.604 896.912 22.12 896.384 22.52C895.856 22.912 895.2 23.108 894.416 23.108C893.792 23.108 893.232 22.968 892.736 22.688C892.248 22.408 891.864 22.012 891.584 21.5C891.304 20.98 891.164 20.38 891.164 19.7C891.164 19.02 891.3 18.424 891.572 17.912C891.844 17.4 892.224 17.008 892.712 16.736C893.208 16.456 893.776 16.316 894.416 16.316C895.04 16.316 895.592 16.452 896.072 16.724C896.552 16.996 896.92 17.372 897.176 17.852C897.44 18.324 897.572 18.86 897.572 19.46ZM896.444 19.232C896.444 18.816 896.352 18.46 896.168 18.164C895.984 17.86 895.732 17.632 895.412 17.48C895.1 17.32 894.752 17.24 894.368 17.24C893.816 17.24 893.344 17.416 892.952 17.768C892.568 18.12 892.348 18.608 892.292 19.232H896.444ZM907.877 16.424L903.917 26.096H902.789L904.085 22.928L901.433 16.424H902.645L904.709 21.752L906.749 16.424H907.877ZM911.843 23.108C911.227 23.108 910.667 22.968 910.163 22.688C909.667 22.408 909.275 22.012 908.987 21.5C908.707 20.98 908.567 20.38 908.567 19.7C908.567 19.028 908.711 18.436 908.999 17.924C909.295 17.404 909.695 17.008 910.199 16.736C910.703 16.456 911.267 16.316 911.891 16.316C912.515 16.316 913.079 16.456 913.583 16.736C914.087 17.008 914.483 17.4 914.771 17.912C915.067 18.424 915.215 19.02 915.215 19.7C915.215 20.38 915.063 20.98 914.759 21.5C914.463 22.012 914.059 22.408 913.547 22.688C913.035 22.968 912.467 23.108 911.843 23.108ZM911.843 22.148C912.235 22.148 912.603 22.056 912.947 21.872C913.291 21.688 913.567 21.412 913.775 21.044C913.991 20.676 914.099 20.228 914.099 19.7C914.099 19.172 913.995 18.724 913.787 18.356C913.579 17.988 913.307 17.716 912.971 17.54C912.635 17.356 912.271 17.264 911.879 17.264C911.479 17.264 911.111 17.356 910.775 17.54C910.447 17.716 910.183 17.988 909.983 18.356C909.783 18.724 909.683 19.172 909.683 19.7C909.683 20.236 909.779 20.688 909.971 21.056C910.171 21.424 910.435 21.7 910.763 21.884C911.091 22.06 911.451 22.148 911.843 22.148ZM922.483 16.424V23H921.391V22.028C921.183 22.364 920.891 22.628 920.515 22.82C920.147 23.004 919.739 23.096 919.291 23.096C918.779 23.096 918.319 22.992 917.911 22.784C917.503 22.568 917.179 22.248 916.939 21.824C916.707 21.4 916.591 20.884 916.591 20.276V16.424H917.671V20.132C917.671 20.78 917.835 21.28 918.163 21.632C918.491 21.976 918.939 22.148 919.507 22.148C920.091 22.148 920.551 21.968 920.887 21.608C921.223 21.248 921.391 20.724 921.391 20.036V16.424H922.483ZM928.618 14.12V23H927.526V14.12H928.618ZM933.347 23.108C932.731 23.108 932.171 22.968 931.667 22.688C931.171 22.408 930.779 22.012 930.491 21.5C930.211 20.98 930.071 20.38 930.071 19.7C930.071 19.028 930.215 18.436 930.503 17.924C930.799 17.404 931.199 17.008 931.703 16.736C932.207 16.456 932.771 16.316 933.395 16.316C934.019 16.316 934.583 16.456 935.087 16.736C935.591 17.008 935.987 17.4 936.275 17.912C936.571 18.424 936.719 19.02 936.719 19.7C936.719 20.38 936.567 20.98 936.263 21.5C935.967 22.012 935.563 22.408 935.051 22.688C934.539 22.968 933.971 23.108 933.347 23.108ZM933.347 22.148C933.739 22.148 934.107 22.056 934.451 21.872C934.795 21.688 935.071 21.412 935.279 21.044C935.495 20.676 935.603 20.228 935.603 19.7C935.603 19.172 935.499 18.724 935.291 18.356C935.083 17.988 934.811 17.716 934.475 17.54C934.139 17.356 933.775 17.264 933.383 17.264C932.983 17.264 932.615 17.356 932.279 17.54C931.951 17.716 931.687 17.988 931.487 18.356C931.287 18.724 931.187 19.172 931.187 19.7C931.187 20.236 931.283 20.688 931.475 21.056C931.675 21.424 931.939 21.7 932.267 21.884C932.595 22.06 932.955 22.148 933.347 22.148ZM941.022 23.108C940.406 23.108 939.846 22.968 939.342 22.688C938.846 22.408 938.454 22.012 938.166 21.5C937.886 20.98 937.746 20.38 937.746 19.7C937.746 19.028 937.89 18.436 938.178 17.924C938.474 17.404 938.874 17.008 939.378 16.736C939.882 16.456 940.446 16.316 941.07 16.316C941.694 16.316 942.258 16.456 942.762 16.736C943.266 17.008 943.662 17.4 943.95 17.912C944.246 18.424 944.394 19.02 944.394 19.7C944.394 20.38 944.242 20.98 943.938 21.5C943.642 22.012 943.238 22.408 942.726 22.688C942.214 22.968 941.646 23.108 941.022 23.108ZM941.022 22.148C941.414 22.148 941.782 22.056 942.126 21.872C942.47 21.688 942.746 21.412 942.954 21.044C943.17 20.676 943.278 20.228 943.278 19.7C943.278 19.172 943.174 18.724 942.966 18.356C942.758 17.988 942.486 17.716 942.15 17.54C941.814 17.356 941.45 17.264 941.058 17.264C940.658 17.264 940.29 17.356 939.954 17.54C939.626 17.716 939.362 17.988 939.162 18.356C938.962 18.724 938.862 19.172 938.862 19.7C938.862 20.236 938.958 20.688 939.15 21.056C939.35 21.424 939.614 21.7 939.942 21.884C940.27 22.06 940.63 22.148 941.022 22.148ZM949.502 23L946.922 20.096V23H945.83V14.12H946.922V19.34L949.454 16.424H950.978L947.882 19.7L950.99 23H949.502ZM952.57 15.356C952.362 15.356 952.186 15.284 952.042 15.14C951.898 14.996 951.826 14.82 951.826 14.612C951.826 14.404 951.898 14.228 952.042 14.084C952.186 13.94 952.362 13.868 952.57 13.868C952.77 13.868 952.938 13.94 953.074 14.084C953.218 14.228 953.29 14.404 953.29 14.612C953.29 14.82 953.218 14.996 953.074 15.14C952.938 15.284 952.77 15.356 952.57 15.356ZM953.098 16.424V23H952.006V16.424H953.098ZM958.163 16.304C958.963 16.304 959.611 16.548 960.107 17.036C960.603 17.516 960.851 18.212 960.851 19.124V23H959.771V19.28C959.771 18.624 959.607 18.124 959.279 17.78C958.951 17.428 958.503 17.252 957.935 17.252C957.359 17.252 956.899 17.432 956.555 17.792C956.219 18.152 956.051 18.676 956.051 19.364V23H954.959V16.424H956.051V17.36C956.267 17.024 956.559 16.764 956.927 16.58C957.303 16.396 957.715 16.304 958.163 16.304ZM965.347 16.316C965.915 16.316 966.411 16.44 966.835 16.688C967.267 16.936 967.587 17.248 967.795 17.624V16.424H968.899V23.144C968.899 23.744 968.771 24.276 968.515 24.74C968.259 25.212 967.891 25.58 967.411 25.844C966.939 26.108 966.387 26.24 965.755 26.24C964.891 26.24 964.171 26.036 963.595 25.628C963.019 25.22 962.679 24.664 962.575 23.96H963.655C963.775 24.36 964.023 24.68 964.399 24.92C964.775 25.168 965.227 25.292 965.755 25.292C966.355 25.292 966.843 25.104 967.219 24.728C967.603 24.352 967.795 23.824 967.795 23.144V21.764C967.579 22.148 967.259 22.468 966.835 22.724C966.411 22.98 965.915 23.108 965.347 23.108C964.763 23.108 964.231 22.964 963.751 22.676C963.279 22.388 962.907 21.984 962.635 21.464C962.363 20.944 962.227 20.352 962.227 19.688C962.227 19.016 962.363 18.428 962.635 17.924C962.907 17.412 963.279 17.016 963.751 16.736C964.231 16.456 964.763 16.316 965.347 16.316ZM967.795 19.7C967.795 19.204 967.695 18.772 967.495 18.404C967.295 18.036 967.023 17.756 966.679 17.564C966.343 17.364 965.971 17.264 965.563 17.264C965.155 17.264 964.783 17.36 964.447 17.552C964.111 17.744 963.843 18.024 963.643 18.392C963.443 18.76 963.343 19.192 963.343 19.688C963.343 20.192 963.443 20.632 963.643 21.008C963.843 21.376 964.111 21.66 964.447 21.86C964.783 22.052 965.155 22.148 965.563 22.148C965.971 22.148 966.343 22.052 966.679 21.86C967.023 21.66 967.295 21.376 967.495 21.008C967.695 20.632 967.795 20.196 967.795 19.7ZM976.62 17.324H975.24V23H974.148V17.324H973.296V16.424H974.148V15.956C974.148 15.22 974.336 14.684 974.712 14.348C975.096 14.004 975.708 13.832 976.548 13.832V14.744C976.068 14.744 975.728 14.84 975.528 15.032C975.336 15.216 975.24 15.524 975.24 15.956V16.424H976.62V17.324ZM980.761 23.108C980.145 23.108 979.585 22.968 979.081 22.688C978.585 22.408 978.193 22.012 977.905 21.5C977.625 20.98 977.485 20.38 977.485 19.7C977.485 19.028 977.629 18.436 977.917 17.924C978.213 17.404 978.613 17.008 979.117 16.736C979.621 16.456 980.185 16.316 980.809 16.316C981.433 16.316 981.997 16.456 982.501 16.736C983.005 17.008 983.401 17.4 983.689 17.912C983.985 18.424 984.133 19.02 984.133 19.7C984.133 20.38 983.981 20.98 983.677 21.5C983.381 22.012 982.977 22.408 982.465 22.688C981.953 22.968 981.385 23.108 980.761 23.108ZM980.761 22.148C981.153 22.148 981.521 22.056 981.865 21.872C982.209 21.688 982.485 21.412 982.693 21.044C982.909 20.676 983.017 20.228 983.017 19.7C983.017 19.172 982.913 18.724 982.705 18.356C982.497 17.988 982.225 17.716 981.889 17.54C981.553 17.356 981.189 17.264 980.797 17.264C980.397 17.264 980.029 17.356 979.693 17.54C979.365 17.716 979.101 17.988 978.901 18.356C978.701 18.724 978.601 19.172 978.601 19.7C978.601 20.236 978.697 20.688 978.889 21.056C979.089 21.424 979.353 21.7 979.681 21.884C980.009 22.06 980.369 22.148 980.761 22.148ZM986.661 17.492C986.853 17.116 987.125 16.824 987.477 16.616C987.837 16.408 988.273 16.304 988.785 16.304V17.432H988.497C987.273 17.432 986.661 18.096 986.661 19.424V23H985.569V16.424H986.661V17.492ZM992.181 14.528C992.973 14.528 993.613 14.752 994.101 15.2C994.589 15.648 994.833 16.248 994.833 17C994.833 17.84 994.573 18.464 994.053 18.872C993.533 19.272 992.829 19.472 991.941 19.472L991.905 20.612H990.957L990.909 18.716H991.257C992.049 18.716 992.669 18.596 993.117 18.356C993.565 18.116 993.789 17.664 993.789 17C993.789 16.52 993.645 16.14 993.357 15.86C993.069 15.58 992.681 15.44 992.193 15.44C991.697 15.44 991.305 15.576 991.017 15.848C990.737 16.112 990.597 16.476 990.597 16.94H989.565C989.565 16.46 989.673 16.04 989.889 15.68C990.105 15.312 990.409 15.028 990.801 14.828C991.201 14.628 991.661 14.528 992.181 14.528ZM991.425 23.072C991.217 23.072 991.041 23 990.897 22.856C990.753 22.712 990.681 22.536 990.681 22.328C990.681 22.12 990.753 21.944 990.897 21.8C991.041 21.656 991.217 21.584 991.425 21.584C991.625 21.584 991.793 21.656 991.929 21.8C992.073 21.944 992.145 22.12 992.145 22.328C992.145 22.536 992.073 22.712 991.929 22.856C991.793 23 991.625 23.072 991.425 23.072Z" fill="black"/>
<path d="M1050 27L1046.22 23.2156M1048.32 18.1579C1048.32 20.0563 1047.56 21.8769 1046.22 23.2193C1044.88 24.5617 1043.06 25.3158 1041.16 25.3158C1039.26 25.3158 1037.44 24.5617 1036.1 23.2193C1034.75 21.8769 1034 20.0563 1034 18.1579C1034 16.2595 1034.75 14.4389 1036.1 13.0965C1037.44 11.7541 1039.26 11 1041.16 11C1043.06 11 1044.88 11.7541 1046.22 13.0965C1047.56 14.4389 1048.32 16.2595 1048.32 18.1579V18.1579Z" stroke="black" stroke-width="1.5" stroke-linecap="round"/>
<path d="M1101 10C1098.24 10 1096 12.216 1096 14.95C1096 17.157 1096.88 22.395 1105.49 27.69C1105.64 27.7839 1105.82 27.8335 1106 27.8335C1106.18 27.8335 1106.36 27.7839 1106.51 27.69C1115.12 22.395 1116 17.157 1116 14.95C1116 12.216 1113.76 10 1111 10C1108.24 10 1106 13 1106 13C1106 13 1103.76 10 1101 10Z" stroke="black" stroke-width="1.5" stroke-linecap="round" stroke-linejoin="round"/>
<path d="M1149 30C1149.55 30 1150 29.5523 1150 29C1150 28.4477 1149.55 28 1149 28C1148.45 28 1148 28.4477 1148 29C1148 29.5523 1148.45 30 1149 30Z" stroke="black" stroke-width="1.5" stroke-linecap="round" stroke-linejoin="round"/>
<path d="M1163 30C1163.55 30 1164 29.5523 1164 29C1164 28.4477 1163.55 28 1163 28C1162.45 28 1162 28.4477 1162 29C1162 29.5523 1162.45 30 1163 30Z" stroke="black" stroke-width="1.5" stroke-linecap="round" stroke-linejoin="round"/>
<path d="M1141 8H1145L1148 25H1164" stroke="black" stroke-width="1.5" stroke-linecap="round" stroke-linejoin="round"/>
<path d="M1148 19.6667H1163.59C1163.71 19.6668 1163.82 19.6268 1163.91 19.5536C1164 19.4803 1164.06 19.3783 1164.08 19.2649L1165.88 10.2649C1165.9 10.1923 1165.89 10.1174 1165.88 10.0456C1165.86 9.9738 1165.82 9.90687 1165.78 9.84965C1165.73 9.79242 1165.67 9.74633 1165.6 9.7147C1165.54 9.68308 1165.46 9.6667 1165.39 9.66675H1146" stroke="black" stroke-width="1.5" stroke-linecap="round" stroke-linejoin="round"/>
</svg>
